<svg width="28" height="28" viewBox="0 0 28 28" fill="none" xmlns="http://www.w3.org/2000/svg">
<path d="M1.48193 7.79226C2.36833 5.98707 3.62073 4.46132 5.19909 3.19266C7.33788 1.46571 9.79121 0.426189 12.5419 0.107626C15.773 -0.266825 18.8096 0.331179 21.6175 1.97429C22.3152 2.38228 22.9671 2.84615 23.5904 3.34914C23.7448 3.4721 23.7277 3.54475 23.5961 3.66771C22.3209 4.90843 21.0456 6.14915 19.7818 7.40104C19.6331 7.54635 19.553 7.53518 19.3929 7.41781C15.6872 4.62899 10.283 5.38348 7.52088 9.0721C7.03479 9.72041 6.6402 10.419 6.3657 11.1791C6.34283 11.2462 6.29708 11.3076 6.26277 11.3747C5.52505 10.827 4.78162 10.2793 4.04963 9.726C3.19183 9.08328 2.33402 8.44057 1.48193 7.79226Z" fill="#E94335"/>
<path d="M6.26311 16.6172C6.50902 17.1481 6.71489 17.7014 7.0237 18.1988C8.32185 20.2779 10.1747 21.6136 12.6166 22.0886C14.8183 22.519 16.9342 22.2284 18.9072 21.1497C18.9758 21.1162 19.0444 21.0827 19.1073 21.0491C19.1416 21.0827 19.1702 21.1218 19.2045 21.1497C20.68 22.2675 22.1611 23.3853 23.6365 24.503C22.9274 25.1904 22.1211 25.7437 21.2633 26.2244C18.7756 27.6104 16.0821 28.1693 13.2456 27.9569C9.71149 27.6886 6.66342 26.325 4.1472 23.8659C3.04349 22.7873 2.13421 21.5689 1.47656 20.1773C2.08846 19.719 2.70036 19.2663 3.31227 18.808C4.29588 18.0759 5.2795 17.3493 6.26311 16.6172Z" fill="#34A853"/>
<path d="M23.6422 24.5019C22.1667 23.3842 20.6856 22.2664 19.2102 21.1487C19.1759 21.1207 19.1416 21.0816 19.113 21.0481C19.6219 20.6624 20.1423 20.288 20.5598 19.7962C21.2575 18.9802 21.7207 18.058 21.9609 17.0241C21.9895 16.8956 21.9666 16.8508 21.8351 16.8564C21.7664 16.862 21.7035 16.8564 21.6349 16.8564C19.3017 16.8564 16.9627 16.8508 14.6295 16.862C14.3722 16.862 14.315 16.795 14.3207 16.5546C14.3321 14.9339 14.3321 13.3131 14.3207 11.6924C14.3207 11.4856 14.3779 11.4297 14.5895 11.4297C18.8671 11.4353 23.1446 11.4353 27.428 11.4297C27.611 11.4297 27.6853 11.4744 27.731 11.6644C28.0799 13.2013 28.057 14.7439 27.8454 16.2976C27.6739 17.5383 27.365 18.7399 26.8904 19.9023C26.187 21.6181 25.1519 23.1159 23.7909 24.4013C23.7394 24.4405 23.6879 24.4684 23.6422 24.5019Z" fill="#4285F3"/>
<path d="M6.26327 16.618C5.27966 17.3501 4.29604 18.0767 3.31242 18.8088C2.70052 19.2615 2.08862 19.7198 1.47672 20.1781C1.00207 19.3174 0.693259 18.4064 0.441636 17.4675C-0.038735 15.6511 -0.113078 13.8068 0.149982 11.9569C0.355855 10.5038 0.784758 9.10661 1.47672 7.79883C2.33453 8.44154 3.18661 9.08985 4.04442 9.73256C4.78213 10.2859 5.51984 10.8336 6.25755 11.3813C6.13174 11.9793 5.95446 12.5661 5.89728 13.1809C5.79434 14.2986 5.903 15.3885 6.22896 16.4615C6.25184 16.5062 6.25755 16.5621 6.26327 16.618Z" fill="#FABB06"/>
</svg>
