<svg width="693" height="712" viewBox="0 0 693 712" fill="none" xmlns="http://www.w3.org/2000/svg">
<path d="M394.19 205.663L394.024 205.569L394.19 205.47V205.663Z" fill="white"/>
<path d="M432.927 205.57L432.055 206.068V205.063L432.927 205.57Z" fill="white"/>
<path d="M375.954 238.789L374.577 239.583V237.989L375.954 238.789Z" fill="white"/>
<path d="M452.567 240.719L449.238 238.789L452.567 236.854V240.719Z" fill="white"/>
<path d="M489.911 172.347L489.544 172.562V172.133L489.911 172.347Z" fill="white"/>
<path d="M395.457 274.306L391.497 272.012L395.457 269.715V274.306Z" fill="white"/>
<path d="M435.821 272.011L430.622 275.022V268.998L435.821 272.011Z" fill="white"/>
<path d="M492.594 238.789L488.201 241.339V236.235L492.594 238.789Z" fill="white"/>
<path d="M509.731 207.235L506.851 205.569L509.731 203.898V207.235Z" fill="white"/>
<path d="M336.955 239.038L336.54 238.791L336.955 238.545V239.038Z" fill="white"/>
<path d="M338.163 307.579L334.121 305.231L338.163 302.887V307.579Z" fill="white"/>
<path d="M378.942 305.231L373.067 308.631V301.829L378.942 305.231Z" fill="white"/>
<path d="M454.456 310.454L445.453 305.233L454.456 300.014V310.454Z" fill="white"/>
<path d="M496.728 305.232L486.135 311.37V299.091L496.728 305.232Z" fill="white"/>
<path d="M511.456 276.676L503.404 272.01L511.456 267.342V276.676Z" fill="white"/>
<path d="M550.185 205.569L545.379 208.356V202.782L550.185 205.569Z" fill="white"/>
<path d="M567.279 174.414L563.71 172.348L567.279 170.277V174.414Z" fill="white"/>
<path d="M547.357 139.122L546.805 139.448V138.802L547.357 139.122Z" fill="white"/>
<path d="M318.519 272.013L317.302 272.716V271.309L318.519 272.013Z" fill="white"/>
<path d="M321.179 338.452L315.98 341.473V335.437L321.179 338.452Z" fill="white"/>
<path d="M397.389 344.124L387.615 338.452L397.389 332.781V344.124Z" fill="white"/>
<path d="M440.232 338.452L428.411 345.301V331.6L440.232 338.452Z" fill="white"/>
<path d="M513.865 347.314L498.572 338.452L513.865 329.595V347.314Z" fill="white"/>
<path d="M553.54 272.011L543.696 277.715V266.3L553.54 272.011Z" fill="white"/>
<path d="M568.789 243.476L560.697 238.787L568.789 234.101V243.476Z" fill="white"/>
<path d="M608.304 172.347L602.299 175.824V168.856L608.304 172.347Z" fill="white"/>
<path d="M279.513 272.024L279.491 272.011L279.513 271.996V272.024Z" fill="white"/>
<path d="M339.693 376.672L331.067 371.672L339.693 366.674V376.672Z" fill="white"/>
<path d="M382.653 371.673L371.22 378.299V365.052L382.653 371.673Z" fill="white"/>
<path d="M456.763 380.908L440.837 371.673L456.763 362.444V380.908Z" fill="white"/>
<path d="M501.397 371.673L483.809 381.867V361.479L501.397 371.673Z" fill="white"/>
<path d="M558.468 338.452L541.248 348.435V328.469L558.468 338.452Z" fill="white"/>
<path d="M570.936 313.653L556.401 305.231L570.936 296.811V313.653Z" fill="white"/>
<path d="M611.487 238.789L600.709 245.041V232.532L611.487 238.789Z" fill="white"/>
<path d="M626.782 211.437L616.653 205.569L626.782 199.691V211.437Z" fill="white"/>
<path d="M625.187 142.215L619.848 139.119L625.187 136.025V142.215Z" fill="white"/>
<path d="M605.468 105.9L603.721 106.916V104.893L605.468 105.9Z" fill="white"/>
<path d="M260.921 305.232L260.134 305.69V304.774L260.921 305.232Z" fill="white"/>
<path d="M280.545 340.27L277.406 338.453L280.545 336.641V340.27Z" fill="white"/>
<path d="M281.766 408.83L274.975 404.892L281.766 400.955V408.83Z" fill="white"/>
<path d="M323.862 404.894L314.641 410.246V399.555L323.862 404.894Z" fill="white"/>
<path d="M399.18 413.671L384.042 404.894L399.18 396.125V413.671Z" fill="white"/>
<path d="M444.053 404.893L426.497 415.074V394.719L444.053 404.893Z" fill="white"/>
<path d="M515.824 417.153L494.68 404.894L515.824 392.645V417.153Z" fill="white"/>
<path d="M562.05 404.892L539.444 418.001V391.791L562.05 404.892Z" fill="white"/>
<path d="M573.087 383.844L552.095 371.672L573.087 359.506V383.844Z" fill="white"/>
<path d="M615.644 305.233L598.627 315.103V295.36L615.644 305.233Z" fill="white"/>
<path d="M628.519 280.903L613.173 272.011L628.519 263.113V280.903Z" fill="white"/>
<path d="M671.061 205.568L656.899 213.774V197.359L671.061 205.568Z" fill="white"/>
<path d="M685.343 180.378L671.482 172.347L685.343 164.307V180.378Z" fill="white"/>
<path d="M667.744 139.12L658.561 144.446V133.8L667.744 139.12Z" fill="white"/>
<path d="M623.841 73.4421L622.53 72.6796L623.841 71.9199V73.4421Z" fill="white"/>
<path d="M263.056 371.673L259.069 373.993V369.358L263.056 371.673Z" fill="white"/>
<path d="M265.203 438.119L257.995 442.298V433.945L265.203 438.119Z" fill="white"/>
<path d="M341.112 445.589L328.22 438.119L341.112 430.651V445.589Z" fill="white"/>
<path d="M385.613 438.119L369.737 447.326V428.915L385.613 438.119Z" fill="white"/>
<path d="M458.359 450.123L437.647 438.12L458.359 426.119V450.123Z" fill="white"/>
<path d="M504.628 438.117L482.186 451.128V425.104L504.628 438.117Z" fill="white"/>
<path d="M574.323 452.442L549.614 438.12L574.323 423.8V452.442Z" fill="white"/>
<path d="M619.5 371.672L596.694 384.897V358.458L619.5 371.672Z" fill="white"/>
<path d="M630.607 350.975L609.009 338.452L630.607 325.934V350.975Z" fill="white"/>
<path d="M674.377 272.011L655.242 283.1V260.92L674.377 272.011Z" fill="white"/>
<path d="M686.911 249.548L668.35 238.789L686.911 228.031V249.548Z" fill="white"/>
<path d="M683.618 110.93L674.941 105.9L683.618 100.871V110.93Z" fill="white"/>
<path d="M664.537 72.6793L660.155 75.2178V70.1416L664.537 72.6793Z" fill="white"/>
<path d="M222.837 372.816L220.877 371.675L222.837 370.539V372.816Z" fill="white"/>
<path d="M282.849 477.156L272.815 471.344L282.849 465.529V477.156Z" fill="white"/>
<path d="M326.251 471.343L313.446 478.763V463.923L326.251 471.343Z" fill="white"/>
<path d="M400.396 482.235L381.602 471.342L400.396 460.447V482.235Z" fill="white"/>
<path d="M446.482 471.342L425.277 483.634V459.05L446.482 471.342Z" fill="white"/>
<path d="M516.876 485.438L492.555 471.341L516.876 457.245V485.438Z" fill="white"/>
<path d="M563.763 471.342L538.591 485.928V456.748L563.763 471.342Z" fill="white"/>
<path d="M621.612 438.118L595.644 453.167V423.067L621.612 438.118Z" fill="white"/>
<path d="M631.909 419.678L606.407 404.893L631.909 390.121V419.678Z" fill="white"/>
<path d="M677.858 338.451L653.502 352.573V324.33L677.858 338.451Z" fill="white"/>
<path d="M688.652 319.011L664.881 305.232L688.652 291.452V319.011Z" fill="white"/>
<path d="M682.007 41.6862L678.163 39.4538L682.007 37.2324V41.6862Z" fill="white"/>
<path d="M662.136 6.2342L661.362 6.68133V5.78906L662.136 6.2342Z" fill="white"/>
<path d="M204.703 404.894L202.265 406.309V403.481L204.703 404.894Z" fill="white"/>
<path d="M223.842 441.004L218.864 438.119L223.842 435.231V441.004Z" fill="white"/>
<path d="M224.726 508.981L217.094 504.561L224.726 500.142V508.981Z" fill="white"/>
<path d="M267.186 504.562L256.996 510.467V498.657L267.186 504.562Z" fill="white"/>
<path d="M342.059 513.678L326.33 504.562L342.059 495.446V513.678Z" fill="white"/>
<path d="M387.502 504.562L368.795 515.405V493.723L387.502 504.562Z" fill="white"/>
<path d="M459.074 517.811L436.213 504.562L459.074 491.312V517.811Z" fill="white"/>
<path d="M505.926 504.564L481.537 518.698V490.43L505.926 504.564Z" fill="white"/>
<path d="M574.721 519.57L548.826 504.562L574.721 489.554V519.57Z" fill="white"/>
<path d="M621.866 504.563L595.526 519.828V489.299L621.866 504.563Z" fill="white"/>
<path d="M632.344 486.885L605.527 471.341L632.344 455.798V486.885Z" fill="white"/>
<path d="M679.637 404.893L652.618 420.555V389.239L679.637 404.893Z" fill="white"/>
<path d="M689.758 387.379L662.667 371.675L689.758 355.976V387.379Z" fill="white"/>
<path d="M165.176 405.442L164.244 404.894L165.176 404.357V405.442Z" fill="white"/>
<path d="M206.498 471.343L201.367 474.321V468.365L206.498 471.343Z" fill="white"/>
<path d="M208.242 537.787L200.49 542.275V533.297L208.242 537.787Z" fill="white"/>
<path d="M283.783 545.227L270.936 537.787L283.783 530.342V545.227Z" fill="white"/>
<path d="M327.968 537.788L312.59 546.696V528.873L327.968 537.788Z" fill="white"/>
<path d="M401.026 549.758L380.364 537.787L401.026 525.812V549.758Z" fill="white"/>
<path d="M447.526 537.788L424.754 550.985V524.589L447.526 537.788Z" fill="white"/>
<path d="M517.142 552.338L492.033 537.787L517.142 523.233V552.338Z" fill="white"/>
<path d="M564.014 537.788L538.469 552.59V522.976L564.014 537.788Z" fill="white"/>
<path d="M632.085 552.874L606.06 537.788L632.085 522.704V552.874Z" fill="white"/>
<path d="M679.884 471.342L652.489 487.215V455.467L679.884 471.342Z" fill="white"/>
<path d="M690.083 454.382L662.025 438.119L690.083 421.862V454.382Z" fill="white"/>
<path d="M146.791 438.12L145.239 439.022V437.22L146.791 438.12Z" fill="white"/>
<path d="M165.997 473.314L162.596 471.342L165.997 469.366V473.314Z" fill="white"/>
<path d="M225.614 576.984L215.302 571.009L225.614 565.026V576.984Z" fill="white"/>
<path d="M268.985 571.007L256.107 578.467V563.542L268.985 571.007Z" fill="white"/>
<path d="M342.743 581.305L324.977 571.008L342.743 560.708V581.305Z" fill="white"/>
<path d="M388.543 571.008L368.279 582.752V559.266L388.543 571.008Z" fill="white"/>
<path d="M459.188 584.456L435.978 571.008L459.188 557.55V584.456Z" fill="white"/>
<path d="M505.801 571.008L481.595 585.037V556.978L505.801 571.008Z" fill="white"/>
<path d="M574.201 585.111L549.865 571.008L574.201 556.906V585.111Z" fill="white"/>
<path d="M620.404 571.009L596.255 585.005V557.011L620.404 571.009Z" fill="white"/>
<path d="M678.753 537.787L653.058 552.677V522.892L678.753 537.787Z" fill="white"/>
<path d="M689.684 520.15L662.793 504.564L689.684 488.978V520.15Z" fill="white"/>
<path d="M107.718 438.415L107.208 438.12L107.718 437.822V438.415Z" fill="white"/>
<path d="M148.297 504.563L144.49 506.769V502.354L148.297 504.563Z" fill="white"/>
<path d="M166.803 541.171L160.971 537.789L166.803 534.396V541.171Z" fill="white"/>
<path d="M167.554 608.913L159.479 604.232L167.554 599.543V608.913Z" fill="white"/>
<path d="M209.83 604.231L199.69 610.105V598.354L209.83 604.231Z" fill="white"/>
<path d="M284.401 612.751L269.694 604.23L284.401 595.702V612.751Z" fill="white"/>
<path d="M328.906 604.232L312.117 613.956V594.495L328.906 604.232Z" fill="white"/>
<path d="M400.991 616.153L380.414 604.231L400.991 592.303V616.153Z" fill="white"/>
<path d="M446.81 604.231L425.12 616.802V591.657L446.81 604.231Z" fill="white"/>
<path d="M516.258 617.245L493.802 604.232L516.258 591.211V617.245Z" fill="white"/>
<path d="M561.773 604.231L539.587 617.084V591.371L561.773 604.231Z" fill="white"/>
<path d="M630.545 616.636L609.134 604.231L630.545 591.82V616.636Z" fill="white"/>
<path d="M675.386 604.232L654.742 616.187V592.264L675.386 604.232Z" fill="white"/>
<path d="M688.464 584.47L665.239 571.01L688.464 557.544V584.47Z" fill="white"/>
<path d="M89.1337 471.343L88.0894 471.944V470.736L89.1337 471.343Z" fill="white"/>
<path d="M108.34 505.948L105.952 504.563L108.34 503.181V505.948Z" fill="white"/>
<path d="M149.967 571.008L143.662 574.664V567.354L149.967 571.008Z" fill="white"/>
<path d="M151.034 637.452L143.125 642.032V632.871L151.034 637.452Z" fill="white"/>
<path d="M226.052 644.18L214.443 637.451L226.052 630.717V644.18Z" fill="white"/>
<path d="M269.466 637.452L255.855 645.339V629.557L269.466 637.452Z" fill="white"/>
<path d="M342.481 647.303L325.479 637.451L342.481 627.599V647.303Z" fill="white"/>
<path d="M387.291 637.451L368.905 648.103V626.795L387.291 637.451Z" fill="white"/>
<path d="M457.94 648.727L438.48 637.45L457.94 626.171V648.727Z" fill="white"/>
<path d="M502.883 637.451L483.06 648.94V625.961L502.883 637.451Z" fill="white"/>
<path d="M572.367 648.368L553.53 637.452L572.367 626.532V648.368Z" fill="white"/>
<path d="M616.657 637.45L598.128 648.189V626.711L616.657 637.45Z" fill="white"/>
<path d="M686.395 647.303L669.398 637.451L686.395 627.599V647.303Z" fill="white"/>
<path d="M50.4009 471.64L49.8957 471.343L50.4009 471.045V471.64Z" fill="white"/>
<path d="M90.3462 537.788L87.4827 539.447V536.122L90.3462 537.788Z" fill="white"/>
<path d="M109.075 573.664L104.49 571.008L109.075 568.349V573.664Z" fill="white"/>
<path d="M167.855 675.871L158.882 670.672L167.855 665.474V675.871Z" fill="white"/>
<path d="M210.041 670.672L199.601 676.722V664.621L210.041 670.672Z" fill="white"/>
<path d="M284.037 678.567L270.429 670.672L284.037 662.779V678.567Z" fill="white"/>
<path d="M327.577 670.672L312.777 679.247V662.096L327.577 670.672Z" fill="white"/>
<path d="M399.685 680.33L383.028 670.671L399.685 661.013V680.33Z" fill="white"/>
<path d="M443.634 670.671L426.7 680.486V660.859L443.634 670.671Z" fill="white"/>
<path d="M514.33 680.339L497.653 670.672L514.33 661.006V680.339Z" fill="white"/>
<path d="M557.717 670.672L541.618 680.001V661.337L557.717 670.672Z" fill="white"/>
<path d="M628.413 679.366L613.416 670.672L628.413 661.98V679.366Z" fill="white"/>
<path d="M671.049 670.672L656.902 678.873V662.468L671.049 670.672Z" fill="white"/>
<path d="M31.7423 504.564L30.8107 505.105V504.021L31.7423 504.564Z" fill="white"/>
<path d="M50.8428 538.861L48.9856 537.788L50.8428 536.707V538.861Z" fill="white"/>
<path d="M91.5585 604.231L86.8905 606.94V601.52L91.5585 604.231Z" fill="white"/>
<path d="M109.599 641.026L103.429 637.453L109.599 633.877V641.026Z" fill="white"/>
<path d="M109.748 707.737L103.12 703.892L109.748 700.048V707.737Z" fill="white"/>
<path d="M151.034 703.892L143.125 708.472V699.313L151.034 703.892Z" fill="white"/>
<path d="M225.664 709.943L215.225 703.892L225.664 697.842V709.943Z" fill="white"/>
<path d="M268.159 703.894L256.511 710.648V697.14L268.159 703.894Z" fill="white"/>
<path d="M341.288 711.659L327.887 703.893L341.288 696.126V711.659Z" fill="white"/>
<path d="M384.284 703.891L370.403 711.941V695.848L384.284 703.891Z" fill="white"/>
<path d="M456.114 712L442.12 703.892L456.114 695.783V712Z" fill="white"/>
<path d="M498.812 703.893L485.089 711.845V695.942L498.812 703.893Z" fill="white"/>
<path d="M570.357 711.317L557.549 703.892L570.357 696.467V711.317Z" fill="white"/>
<path d="M612.433 703.891L600.232 710.967V696.823L612.433 703.891Z" fill="white"/>
<path d="M684.444 710.354L673.295 703.892L684.444 697.432V710.354Z" fill="white"/>
<path d="M32.6576 571.007L30.3498 572.344V569.673L32.6576 571.007Z" fill="white"/>
<path d="M51.3748 606.219L47.9382 604.231L51.3748 602.23V606.219Z" fill="white"/>
<path d="M92.274 670.672L86.5273 674.004V667.34L92.274 670.672Z" fill="white"/>
<path d="M33.4904 637.451L29.9387 639.507V635.391L33.4904 637.451Z" fill="white"/>
<path d="M51.7032 673.235L47.283 670.672L51.7032 668.108V673.235Z" fill="white"/>
<path d="M33.8738 703.893L29.749 706.294V701.501L33.8738 703.893Z" fill="white"/>
<path d="M364.319 3.18235L364.31 3.17285H364.319V3.18235Z" fill="white"/>
<path d="M307.084 36.5408L306.834 36.3982L307.084 36.252V36.5408Z" fill="white"/>
<path d="M288.038 69.6198L287.816 69.7534V69.4893L288.038 69.6198Z" fill="white"/>
<path d="M288.566 3.17483L287.555 3.76572V2.58789L288.566 3.17483Z" fill="white"/>
<path d="M249.876 69.9622L249.286 69.6191L249.876 69.2764V69.9622Z" fill="white"/>
<path d="M230.893 102.844L230.411 103.121V102.563L230.893 102.844Z" fill="white"/>
<path d="M192.434 169.413L192.216 169.287L192.434 169.156V169.413Z" fill="white"/>
<path d="M173.26 202.508L173.251 202.513V202.497L173.26 202.508Z" fill="white"/>
<path d="M250.139 3.98357L248.747 3.17438L250.139 2.36914V3.98357Z" fill="white"/>
<path d="M231.429 36.4001L230.148 37.142V35.6553L231.429 36.4001Z" fill="white"/>
<path d="M192.704 103.433L191.69 102.844L192.704 102.257V103.433Z" fill="white"/>
<path d="M173.76 136.068L173.011 136.497V135.634L173.76 136.068Z" fill="white"/>
<path d="M135.199 202.79L134.722 202.509L135.199 202.227V202.79Z" fill="white"/>
<path d="M116.107 235.73L115.857 235.877V235.582L116.107 235.73Z" fill="white"/>
<path d="M192.966 37.4562L191.139 36.3989L192.966 35.3379V37.4562Z" fill="white"/>
<path d="M174.296 69.6182L172.742 70.5207V68.7188L174.296 69.6182Z" fill="white"/>
<path d="M135.473 136.808L134.189 136.068L135.473 135.321V136.808Z" fill="white"/>
<path d="M116.615 169.288L115.603 169.875V168.702L116.615 169.288Z" fill="white"/>
<path d="M77.9175 236.072L77.3348 235.731L77.9175 235.389V236.072Z" fill="white"/>
<path d="M58.9384 268.951L58.4631 269.229V268.671L58.9384 268.951Z" fill="white"/>
<path d="M174.847 3.17422L172.454 4.55839V1.78906L174.847 3.17422Z" fill="white"/>
<path d="M135.743 70.8438L133.635 69.6196L135.743 68.3955V70.8438Z" fill="white"/>
<path d="M117.159 102.842L115.329 103.903V101.784L117.159 102.842Z" fill="white"/>
<path d="M78.2383 170.185L76.6864 169.287L78.2383 168.38V170.185Z" fill="white"/>
<path d="M59.4739 202.508L58.1923 203.251V201.767L59.4739 202.508Z" fill="white"/>
<path d="M20.655 269.379L19.9114 268.952L20.655 268.521V269.379Z" fill="white"/>
<path d="M1.64075 302.173L1.13561 302.47V301.88L1.64075 302.173Z" fill="white"/>
<path d="M136.021 4.88697L133.072 3.17295L136.021 1.46582V4.88697Z" fill="white"/>
<path d="M117.769 36.3979L115.018 37.9912V34.7988L117.769 36.3979Z" fill="white"/>
<path d="M78.5198 104.224L76.1345 102.842L78.5198 101.457V104.224Z" fill="white"/>
<path d="M60.0256 136.067L57.9182 137.286V134.839L60.0256 136.067Z" fill="white"/>
<path d="M20.929 203.407L19.3772 202.509L20.929 201.604V203.407Z" fill="white"/>
<path d="M2.15295 235.732L0.871424 236.474V234.99L2.15295 235.732Z" fill="white"/>
<path d="M78.8131 38.2773L75.5743 36.4003L78.8131 34.5225V38.2773Z" fill="white"/>
<path d="M60.5924 69.6193L57.6414 71.3315V67.9102L60.5924 69.6193Z" fill="white"/>
<path d="M21.2067 137.452L18.8189 136.067L21.2067 134.678V137.452Z" fill="white"/>
<path d="M2.71216 169.288L0.5997 170.507V168.059L2.71216 169.288Z" fill="white"/>
<path d="M61.2144 3.17385L57.3173 5.43566V0.921875L61.2144 3.17385Z" fill="white"/>
<path d="M21.5117 71.5443L18.1928 69.6193L21.5117 67.6973V71.5443Z" fill="white"/>
<path d="M3.27161 102.842L0.318197 104.55V101.13L3.27161 102.842Z" fill="white"/>
<path d="M21.8557 5.69722L17.5031 3.17428L21.8557 0.65332V5.69722Z" fill="white"/>
<path d="M3.8894 36.3993L-0.000159979 38.6553V34.1445L3.8894 36.3993Z" fill="white"/>
</svg>
