<svg width="14" height="22" viewBox="0 0 14 22" fill="none" xmlns="http://www.w3.org/2000/svg">
<path d="M9.0913 21.9825C8.95706 21.9869 8.87114 21.9956 8.78522 21.9956C6.9487 21.9956 5.11755 21.9913 3.28103 22C3.02328 22 2.95347 21.9432 2.95347 21.7337C2.95884 18.2584 2.95884 14.7787 2.95884 11.3034C2.95884 11.2118 2.95884 11.1201 2.95884 11.0022C1.96003 11.0022 0.988069 11.0022 0 11.0022C0 9.76226 0 8.54416 0 7.29114C0.102029 7.29114 0.198687 7.29114 0.289976 7.29114C1.09547 7.29114 1.90096 7.28677 2.70645 7.2955C2.91051 7.2955 2.96421 7.24748 2.96421 7.08594C2.95347 6.11233 2.95347 5.13436 2.96421 4.16076C2.96958 3.47967 3.10382 2.81604 3.49046 2.20045C4.04356 1.33162 4.91886 0.768417 6.02507 0.419142C6.92722 0.130989 7.8777 0.0262066 8.83355 0.0131088C10.3908 -0.00435502 11.9481 0.00437686 13.5054 1.09149e-05C13.6504 1.09149e-05 13.7685 -0.00435503 13.7685 0.161551C13.7632 1.36219 13.7632 2.56282 13.7632 3.76345C13.7632 3.77655 13.7578 3.78965 13.7363 3.84641C13.645 3.84641 13.543 3.84641 13.441 3.84641C12.4744 3.84641 11.5078 3.84204 10.5412 3.84641C9.98271 3.84641 9.53164 4.02978 9.24703 4.42708C9.16111 4.54496 9.10742 4.69777 9.10742 4.83748C9.0913 5.57969 9.10741 6.3219 9.09667 7.06411C9.09667 7.23875 9.16111 7.28677 9.37054 7.28677C10.713 7.27804 12.0555 7.2824 13.398 7.2824C13.5054 7.2824 13.6074 7.2824 13.79 7.2824C13.6021 8.53106 13.4195 9.75353 13.2315 10.9891C11.8353 10.9891 10.4767 10.9891 9.0913 10.9891C9.0913 14.6609 9.0913 18.3108 9.0913 21.9825Z" fill="white"/>
</svg>
