<svg width="110" height="110" viewBox="0 0 110 110" fill="none" xmlns="http://www.w3.org/2000/svg">
<circle cx="55" cy="55" r="55" fill="#01257D"/>
<path d="M55 63.1817C53.4178 63.1817 51.871 62.7262 50.5554 61.8728C49.2399 61.0195 48.2145 59.8066 47.609 58.3875C47.0035 56.9684 46.845 55.4069 47.1537 53.9004C47.4624 52.394 48.2243 51.0102 49.3432 49.9241C50.462 48.838 51.8874 48.0983 53.4393 47.7986C54.9911 47.499 56.5997 47.6528 58.0615 48.2406C59.5233 48.8284 60.7727 49.8238 61.6518 51.1009C62.5308 52.378 63 53.8795 63 55.4155C63 57.4752 62.1572 59.4506 60.6569 60.907C59.1566 62.3635 57.1218 63.1817 55 63.1817ZM55 50.2381C53.9452 50.2381 52.914 50.5418 52.037 51.1107C51.1599 51.6796 50.4763 52.4882 50.0727 53.4342C49.669 54.3803 49.5634 55.4213 49.7692 56.4256C49.9749 57.4299 50.4829 58.3525 51.2288 59.0765C51.9747 59.8006 52.925 60.2937 53.9595 60.4935C54.9941 60.6933 56.0665 60.5907 57.041 60.1989C58.0155 59.807 58.8485 59.1434 59.4345 58.292C60.0206 57.4405 60.3334 56.4395 60.3334 55.4155C60.3334 54.0424 59.7715 52.7255 58.7713 51.7546C57.7711 50.7836 56.4145 50.2381 55 50.2381Z" fill="white"/>
<path d="M61.6667 74.8308H48.3333C46.9189 74.8308 45.5623 74.2853 44.5621 73.3144C43.5619 72.3434 43 71.0265 43 69.6534V66.3528C43.0024 66.0958 43.0836 65.8452 43.2332 65.6332C43.3828 65.4211 43.594 65.2571 43.84 65.162L48.6933 63.2722C48.8579 63.2014 49.0354 63.1637 49.2154 63.1613C49.3953 63.1588 49.5739 63.1918 49.7404 63.2582C49.9068 63.3246 50.0577 63.423 50.184 63.5475C50.3102 63.672 50.4092 63.82 50.4749 63.9826C50.5407 64.1452 50.5718 64.3191 50.5665 64.4937C50.5612 64.6683 50.5195 64.8401 50.444 64.9987C50.3685 65.1572 50.2607 65.2993 50.1271 65.4164C49.9935 65.5334 49.8369 65.623 49.6667 65.6797L45.6667 67.2329V69.6534C45.6667 70.3399 45.9476 70.9984 46.4477 71.4839C46.9478 71.9694 47.6261 72.2421 48.3333 72.2421H61.6667C62.374 72.2421 63.0522 71.9694 63.5523 71.4839C64.0524 70.9984 64.3334 70.3399 64.3334 69.6534V67.2329L60.3334 65.6797C60.0045 65.5527 59.7411 65.3041 59.601 64.9885C59.461 64.6729 59.4559 64.3163 59.5867 63.9971C59.7175 63.6778 59.9737 63.4221 60.2987 63.2861C60.6238 63.1502 60.9912 63.1452 61.32 63.2722L66.1734 65.162C66.4194 65.2571 66.6306 65.4211 66.7802 65.6332C66.9298 65.8452 67.011 66.0958 67.0134 66.3528V69.6534C67.0134 70.3344 66.875 71.0087 66.6061 71.6377C66.3373 72.2667 65.9432 72.838 65.4466 73.319C64.9499 73.7999 64.3604 74.181 63.7118 74.4404C63.0632 74.6998 62.3682 74.8325 61.6667 74.8308Z" fill="white"/>
<path d="M45.6667 48.9435C44.3481 48.9435 43.0592 48.564 41.9629 47.8529C40.8665 47.1417 40.0121 46.131 39.5075 44.9484C39.0029 43.7659 38.8709 42.4646 39.1281 41.2092C39.3853 39.9538 40.0203 38.8006 40.9526 37.8955C41.885 36.9904 43.0729 36.3741 44.3661 36.1244C45.6593 35.8746 46.9997 36.0028 48.2179 36.4926C49.4361 36.9825 50.4773 37.812 51.2098 38.8763C51.9424 39.9405 52.3334 41.1918 52.3334 42.4718C52.3334 43.3217 52.1609 44.1632 51.8259 44.9484C51.4909 45.7336 50.9998 46.4471 50.3807 47.048C49.7617 47.649 49.0268 48.1257 48.2179 48.4509C47.4091 48.7762 46.5422 48.9435 45.6667 48.9435ZM45.6667 38.5887C44.8756 38.5887 44.1022 38.8164 43.4444 39.2431C42.7866 39.6698 42.2739 40.2763 41.9712 40.9858C41.6684 41.6953 41.5892 42.4761 41.7435 43.2293C41.8979 43.9826 42.2788 44.6745 42.8383 45.2175C43.3977 45.7606 44.1104 46.1304 44.8863 46.2802C45.6622 46.4301 46.4665 46.3532 47.1974 46.0593C47.9283 45.7654 48.553 45.2677 48.9926 44.6291C49.4321 43.9905 49.6667 43.2398 49.6667 42.4718C49.6667 41.4419 49.2453 40.4543 48.4951 39.726C47.745 38.9978 46.7276 38.5887 45.6667 38.5887Z" fill="white"/>
<path d="M44.3334 59.8038H40.3333C38.9189 59.8038 37.5623 59.2583 36.5621 58.2874C35.5619 57.3164 35 55.9995 35 54.6264V52.3613C34.9997 52.102 35.0797 51.8487 35.2294 51.6341C35.3792 51.4194 35.5919 51.2534 35.84 51.1575L40.0933 49.5396C40.4173 49.4147 40.7787 49.418 41.1001 49.5486C41.4216 49.6793 41.6776 49.9269 41.8133 50.2385C41.8783 50.3966 41.9105 50.5655 41.9081 50.7357C41.9057 50.9058 41.8688 51.0739 41.7995 51.2302C41.7301 51.3864 41.6297 51.5279 41.5039 51.6465C41.3782 51.7651 41.2296 51.8584 41.0667 51.9212L37.6667 53.2414V54.6264C37.6667 55.3129 37.9476 55.9714 38.4477 56.4569C38.9478 56.9423 39.6261 57.2151 40.3333 57.2151H44.3334C44.687 57.2151 45.0261 57.3515 45.2762 57.5942C45.5262 57.8369 45.6667 58.1662 45.6667 58.5094C45.6667 58.8527 45.5262 59.1819 45.2762 59.4247C45.0261 59.6674 44.687 59.8038 44.3334 59.8038Z" fill="white"/>
<path d="M64.3343 48.9435C63.0158 48.9435 61.7269 48.564 60.6305 47.8529C59.5342 47.1417 58.6797 46.131 58.1751 44.9484C57.6706 43.7659 57.5385 42.4646 57.7958 41.2092C58.053 39.9538 58.6879 38.8006 59.6203 37.8955C60.5526 36.9904 61.7405 36.3741 63.0337 36.1244C64.327 35.8746 65.6674 36.0028 66.8856 36.4926C68.1038 36.9825 69.1449 37.812 69.8775 38.8763C70.61 39.9405 71.001 41.1918 71.001 42.4718C71.001 44.1882 70.2986 45.8343 69.0484 47.048C67.7982 48.2617 66.1025 48.9435 64.3343 48.9435ZM64.3343 38.5887C63.5432 38.5887 62.7699 38.8164 62.1121 39.2431C61.4543 39.6698 60.9416 40.2763 60.6388 40.9858C60.3361 41.6953 60.2569 42.4761 60.4112 43.2293C60.5655 43.9826 60.9465 44.6745 61.5059 45.2175C62.0653 45.7606 62.7781 46.1304 63.554 46.2802C64.3299 46.4301 65.1342 46.3532 65.8651 46.0593C66.596 45.7654 67.2207 45.2677 67.6602 44.6291C68.0998 43.9905 68.3344 43.2398 68.3344 42.4718C68.3344 41.4419 67.9129 40.4543 67.1628 39.726C66.4126 38.9978 65.3952 38.5887 64.3343 38.5887Z" fill="white"/>
<path d="M69.6658 59.8036H65.6658C65.3122 59.8036 64.973 59.6672 64.723 59.4245C64.4729 59.1818 64.3325 58.8525 64.3325 58.5093C64.3325 58.166 64.4729 57.8367 64.723 57.594C64.973 57.3513 65.3122 57.2149 65.6658 57.2149H69.6658C70.373 57.2149 71.0513 56.9422 71.5514 56.4567C72.0515 55.9712 72.3325 55.3128 72.3325 54.6262V53.2412L68.9325 51.9469C68.7695 51.8841 68.6209 51.7908 68.4952 51.6722C68.3695 51.5536 68.269 51.4121 68.1997 51.2559C68.1303 51.0996 68.0934 50.9315 68.091 50.7614C68.0886 50.5912 68.1209 50.4223 68.1858 50.2642C68.3139 49.9456 68.5667 49.6891 68.889 49.5509C69.2113 49.4126 69.5769 49.4038 69.9058 49.5264L74.1591 51.1444C74.4072 51.2403 74.6199 51.4063 74.7697 51.6209C74.9195 51.8356 74.9994 52.0889 74.9991 52.3481V54.6132C75.0009 55.2942 74.8642 55.9689 74.597 56.5985C74.3298 57.2282 73.9372 57.8005 73.4418 58.2826C72.9463 58.7647 72.3578 59.1473 71.7099 59.4083C71.0619 59.6693 70.3673 59.8036 69.6658 59.8036Z" fill="white"/>
</svg>
