<svg width="110" height="110" viewBox="0 0 110 110" fill="none" xmlns="http://www.w3.org/2000/svg">
<circle cx="55" cy="55" r="55" fill="#00FFFF"/>
<path d="M56.2457 33C57.1208 33.1465 58.0087 33.2429 58.8693 33.4483C62.4809 34.3146 65.4757 36.1009 67.5608 39.1785C68.5106 40.5824 69.0728 42.1347 69.2365 43.8119C69.2638 44.0905 69.3512 44.2317 69.6332 44.3388C71.1724 44.9229 72.1131 46.259 72.1276 47.8737C72.144 49.5885 72.1731 51.305 72.1204 53.018C72.0676 54.6738 71.2616 55.892 69.6587 56.5332C69.3785 56.6476 69.0582 56.6886 68.7508 56.7119C68.3669 56.7422 67.9775 56.7226 67.5918 56.7208C66.1635 56.7119 65.6704 56.4046 65.0282 55.0828C63.942 58.0229 62.4264 60.6362 59.9319 62.6135C60.445 63.8299 61.1327 64.9195 62.1753 65.7679C62.6556 66.1591 63.2033 66.3806 63.82 66.4949C66.8512 67.0576 69.8133 67.8256 72.5552 69.2689C73.6505 69.8458 74.3765 70.6728 74.573 71.8732C74.7513 72.961 74.8659 74.0577 74.9714 75.1544C75.0224 75.6742 74.9896 76.2011 74.9896 76.7245C74.9896 77.4104 74.7531 77.6462 74.0617 77.648C73.1393 77.6498 72.2168 77.648 71.2943 77.648C59.5407 77.648 47.7871 77.6462 36.0334 77.6551C35.5986 77.6569 35.2493 77.573 35 77.2121C35 76.3119 35 75.4099 35 74.5096C35.0892 73.8344 35.1765 73.1592 35.2675 72.4858C35.4785 70.939 36.2063 69.7547 37.7237 69.1117C38.104 68.9509 38.466 68.7455 38.8463 68.583C41.1297 67.6095 43.515 66.9504 45.964 66.5414C47.0302 66.3627 47.8344 65.8519 48.5221 65.0892C49.1881 64.3533 49.6811 63.5173 50.0577 62.5974C49.8485 62.4277 49.6393 62.2688 49.4391 62.0955C48.9825 61.699 48.5913 61.1327 48.0582 60.9362C47.5123 60.7362 46.8264 60.8898 46.2023 60.8916C44.1791 60.8934 42.8964 59.9288 42.4015 58.0158C42.2942 57.5978 42.2287 57.1691 42.1522 56.7922C41.55 56.719 40.9441 56.7458 40.4147 56.5636C38.8136 56.0152 37.8602 54.622 37.8547 52.9483C37.8474 51.3211 37.8565 49.6957 37.8547 48.0684C37.8529 46.2858 38.7226 44.9979 40.4201 44.3192C40.6512 44.2263 40.7149 44.112 40.7367 43.8816C40.8604 42.5383 41.2316 41.2558 41.8939 40.0698C43.9098 36.4599 47.1248 34.42 51.1221 33.4483C51.9809 33.2376 52.8706 33.1465 53.7458 33C54.5791 33 55.4124 33 56.2457 33ZM73.6014 76.2351C73.505 75.0955 73.3922 74.0131 73.3285 72.9288C73.2484 71.557 72.5152 70.7193 71.258 70.1602C69.0946 69.1992 66.8458 68.5187 64.526 68.0578C63.3579 67.8256 62.1916 67.6381 61.2419 66.8325C59.8791 65.6786 58.9967 64.2157 58.3399 62.6063C58.1943 62.2473 58.3908 61.9901 58.6801 61.7454C59.3424 61.1881 60.0283 60.6433 60.6087 60.0092C62.2662 58.2016 63.2378 56.0135 64.0202 53.7486C64.9372 51.0925 65.1392 48.3471 64.7898 45.5731C64.5733 43.8458 63.9583 42.249 62.8812 40.8468C59.5807 36.551 53.2527 36.2884 49.4591 38.7194C46.5771 40.5664 45.3217 43.3028 45.087 46.5591C44.8523 49.8207 45.4072 52.9608 46.8355 55.9242C47.3777 57.0477 48.0673 58.1051 48.7023 59.1858C48.7769 59.3108 48.9333 59.4733 49.0534 59.4769C50.0723 59.5001 51.093 59.4894 52.101 59.4894C52.3412 58.4784 52.7906 58.1212 53.7931 58.1123C54.1497 58.1087 54.5081 58.1105 54.8647 58.114C55.7781 58.1194 56.4204 58.691 56.4222 59.4983C56.424 60.3129 55.7945 60.8987 54.8829 60.9023C53.5147 60.9077 52.1447 60.8969 50.7764 60.8916C50.6254 60.8916 50.4762 60.8916 50.3252 60.8916C50.6454 61.2578 50.9802 61.5185 51.3277 61.7668C51.6589 62.0026 51.7771 62.292 51.6188 62.6742C51.033 64.0871 50.2779 65.3946 49.1517 66.4717C48.413 67.179 47.5542 67.6559 46.5262 67.8614C45.3054 68.1043 44.0827 68.3615 42.88 68.6794C41.1716 69.1314 39.514 69.719 37.9657 70.5817C37.3052 70.9497 36.9141 71.4677 36.7994 72.184C36.6884 72.886 36.5738 73.5915 36.5229 74.2988C36.4756 74.9419 36.5138 75.5885 36.5138 76.2351C48.8387 76.2351 61.1673 76.2351 73.6014 76.2351ZM67.821 44.0941C67.8247 44.0709 67.8338 44.0423 67.8319 44.0137C67.8265 43.9405 67.8174 43.8691 67.8083 43.7976C67.4444 40.9307 66.0416 38.6158 63.7018 36.9154C59.2933 33.7091 54.4463 33.2536 49.3882 35.1559C46.2769 36.3259 43.9772 38.4265 42.7363 41.5202C42.3997 42.3579 42.2087 43.2278 42.1486 44.1727C42.487 44.1727 42.7872 44.1423 43.0765 44.1816C43.3604 44.2192 43.6351 44.3263 43.9208 44.4067C45.349 39.1749 48.755 36.0937 54.3153 35.8472C60.4832 35.5757 64.4114 38.5944 66.0598 44.3263C66.6529 44.2477 67.2188 44.1745 67.821 44.0941ZM43.5714 50.4709C43.5714 49.1777 43.5751 47.8844 43.5732 46.593C43.5714 45.8232 43.293 45.5588 42.4925 45.5588C42.2105 45.5588 41.923 45.5945 41.6464 45.5552C40.5311 45.398 39.3376 46.4251 39.303 47.738C39.2575 49.5242 39.2702 51.3122 39.2994 53.0984C39.3157 54.1254 39.978 55.0239 40.935 55.2597C41.4536 55.3865 42.0267 55.3186 42.5744 55.3222C43.2821 55.3293 43.566 55.0525 43.5696 54.3505C43.5751 53.0573 43.5714 51.7641 43.5714 50.4709ZM66.4146 50.4405C66.4146 51.7623 66.4164 53.0841 66.4146 54.4059C66.4146 54.8042 66.5456 55.224 66.9495 55.2579C67.6918 55.3186 68.4888 55.3776 69.1874 55.1811C70.1808 54.9007 70.663 54.0558 70.6885 53.068C70.7321 51.3122 70.7249 49.5528 70.6921 47.7951C70.6685 46.5394 69.5713 45.3873 68.3159 45.5499C68.023 45.5874 67.7228 45.5534 67.4244 45.5534C66.6984 45.5552 66.4146 45.8357 66.4146 46.5627C66.4128 47.8541 66.4146 49.1473 66.4146 50.4405ZM44.9469 55.2704C44.6813 55.5812 44.3938 56.0367 43.9899 56.3475C43.6842 56.5815 43.5951 56.769 43.6551 57.1209C43.9844 59.0214 44.8905 59.7752 47.0029 59.4323C46.306 58.0212 45.5983 56.5904 44.9469 55.2704Z" fill="white"/>
</svg>
