<svg width="110" height="110" viewBox="0 0 110 110" fill="none" xmlns="http://www.w3.org/2000/svg">
<circle cx="55" cy="55" r="55" fill="#DCE000"/>
<path d="M68.7718 52.4277C68.232 52.5587 67.962 53.2138 68.232 53.7378C68.9068 55.31 69.1767 57.0131 69.1767 58.7162C69.1767 66.5769 62.5635 72.8654 54.6006 72.8654C46.6377 72.8654 40.0245 66.5769 40.0245 58.7162C40.0245 50.8556 46.5027 44.5671 54.6006 44.5671C56.0852 44.5671 57.7048 44.8291 59.1894 45.2221C59.7292 45.3532 60.2691 45.0911 60.404 44.5671C60.539 44.043 60.2691 43.519 59.7292 43.388C58.1097 42.864 56.3551 42.6019 54.6006 42.6019C45.423 42.6019 38 49.8075 38 58.7162C38 67.625 45.423 74.8306 54.6006 74.8306C63.7782 74.8306 71.2012 67.625 71.2012 58.7162C71.2012 56.7511 70.7963 54.7859 70.1215 52.9518C69.9865 52.5587 69.3117 52.2967 68.7718 52.4277ZM54.6006 55.441C55.1404 55.441 55.6803 55.0479 55.6803 54.3929C55.6803 53.7378 55.2754 53.3448 54.6006 53.3448C51.6314 53.3448 49.202 55.703 49.202 58.5852C49.202 61.4675 51.6314 63.8257 54.6006 63.8257C57.5698 63.8257 59.9992 61.4675 59.9992 58.5852C59.9992 58.0612 59.5943 57.5371 58.9194 57.5371C58.2446 57.5371 57.9747 58.1922 57.9747 58.7162C57.9747 60.5504 56.4901 61.9915 54.6006 61.9915C52.7111 61.9915 51.2265 60.5504 51.2265 58.7162C51.2265 56.8821 52.7111 55.441 54.6006 55.441ZM59.5943 50.3316C59.8642 49.8075 59.5943 49.2835 59.0544 49.0215C57.7048 48.3664 56.0852 48.1044 54.6006 48.1044C48.5272 48.1044 43.5335 52.8208 43.5335 58.7162C43.5335 64.6117 48.5272 69.4591 54.6006 69.4591C60.674 69.4591 65.6677 64.6117 65.6677 58.7162C65.6677 57.1441 65.3977 55.703 64.7229 54.3929C64.453 53.8689 63.9131 53.6068 63.3733 53.8689C62.8334 54.1309 62.6984 54.6549 62.8334 55.179C63.3733 56.3581 63.6432 57.5371 63.6432 58.7162C63.6432 63.5636 59.5943 67.494 54.6006 67.494C49.6069 67.494 45.558 63.5636 45.558 58.7162C45.558 53.8689 49.6069 49.9385 54.6006 49.9385C55.9502 49.9385 57.1649 50.2006 58.2446 50.7246C58.7845 50.9866 59.3243 50.7246 59.5943 50.3316ZM77.9494 43.781C77.8144 43.388 77.5445 43.126 77.1396 43.126L71.6061 42.2089L70.6613 36.8375C70.6613 36.4444 70.3914 36.1824 69.9865 36.0514C69.5816 35.9204 69.1767 36.0514 68.9068 36.3134L62.2935 42.7329C62.0236 42.995 61.8887 43.257 62.0236 43.65L63.1033 49.1525L54.6006 57.4061H54.4656C53.6558 57.4061 52.981 58.0612 52.981 58.8473C52.981 59.6333 53.6558 60.2884 54.4656 60.2884C55.2754 60.2884 55.9502 59.6333 55.9502 58.8473L64.5879 50.4626L70.1215 51.5107H70.2564C70.5264 51.5107 70.7963 51.3796 70.9313 51.2486L77.5445 44.8291C77.9494 44.5671 78.0844 44.1741 77.9494 43.781ZM64.183 43.65L69.0418 38.9336L69.7166 42.6019L64.9928 47.1873L64.183 43.65ZM70.1215 49.4145L66.4774 48.7594L71.2012 44.1741L74.8452 44.8291L70.1215 49.4145Z" fill="white"/>
</svg>
