<svg width="704" height="638" viewBox="0 0 704 638" fill="none" xmlns="http://www.w3.org/2000/svg">
<path d="M445.111 135.072C577.042 94.8113 654.987 51.5017 689.252 20.1632C694.372 15.4806 704.68 19.2 704.68 26.1383V630.191C704.68 634.359 701.126 637.613 696.987 637.129C508.231 615.09 236.031 534.029 128.499 463C-21.1855 345.171 104.486 258.496 115.499 250.027C149.999 223.5 335.24 168.601 445.111 135.072Z" fill="#01257D"/>
<path d="M622.594 545.619H704.997V637.583L628.088 626.088L622.594 545.619Z" fill="#01257D"/>
<path d="M488.003 212.667L704.998 135.072V0.000457764L488.003 212.667Z" fill="#01257D"/>
<path d="M421.732 393.028C337.718 345.528 201.949 345.529 118.481 393.029C35.0081 440.532 35.4505 517.544 119.465 565.043C203.484 612.546 339.253 612.545 422.726 565.042C506.193 517.542 505.751 440.53 421.732 393.028Z" fill="#DADBD8"/>
<path d="M375.071 506.64C397.52 519.646 397.638 540.731 375.338 553.736C353.037 566.741 316.763 566.742 294.315 553.736C271.869 540.732 271.75 519.646 294.052 506.64C316.352 493.636 352.626 493.635 375.071 506.64Z" fill="#E2E2E0"/>
<path d="M393.225 472.32C409.884 481.973 436.808 481.973 453.361 472.32C461.637 467.494 465.752 461.168 465.718 454.843C465.682 448.517 461.494 442.191 453.164 437.364C436.504 427.712 409.581 427.712 393.029 437.365C384.753 442.191 380.636 448.518 380.672 454.843C380.707 461.168 384.894 467.495 393.225 472.32Z" fill="#E2E2E0"/>
<path d="M79.4486 490.874C89.1534 496.496 104.836 496.496 114.478 490.874C119.298 488.062 121.696 484.377 121.675 480.693C121.654 477.008 119.215 473.324 114.363 470.513C104.658 464.89 88.9757 464.89 79.3348 470.513C74.514 473.324 72.1159 477.008 72.1369 480.693C72.157 484.377 74.596 488.062 79.4486 490.874Z" fill="#E2E2E0"/>
<path d="M115.569 512.417L121.171 515.701C122.431 516.439 123.989 516.446 125.257 515.722L278.42 428.006C279.103 427.614 279.109 426.629 278.429 426.231L272.827 422.947C271.566 422.208 270.008 422.201 268.741 422.925L115.577 510.641C114.895 511.033 114.89 512.019 115.569 512.417Z" fill="#E2E2E0"/>
<path d="M475.207 279.058L435.359 256.058H435.36L475.207 279.058Z" fill="#DADBD8"/>
<path d="M114.677 447.812L95.8683 448.362L77.0607 447.812C76.2501 460.558 78.7298 473.548 82.149 479.892L82.1626 479.89C82.7746 481.283 84.0051 482.603 85.8852 483.692C91.4353 486.907 100.403 486.907 105.917 483.692C107.829 482.577 109.058 481.22 109.638 479.792C113.03 473.413 115.483 460.495 114.677 447.812Z" fill="#415993"/>
<path d="M109.122 440.079C116.492 444.349 116.531 451.27 109.21 455.541C101.888 459.811 89.98 459.811 82.6101 455.541C75.2419 451.271 75.2032 444.349 82.5242 440.079C89.8453 435.81 101.753 435.81 109.122 440.079Z" fill="#E7E8E5"/>
<path d="M106.203 441.779C111.952 445.11 111.982 450.511 106.271 453.841C100.559 457.173 91.2681 457.173 85.5189 453.841C79.7699 450.511 79.7401 445.111 85.4516 441.779C91.1631 438.448 100.454 438.448 106.203 441.779Z" fill="#DADBD8"/>
<path d="M95.909 456.34C92.1534 456.34 88.3936 455.507 85.5191 453.842C82.6333 452.17 81.1887 449.976 81.1875 447.786C81.1871 446.315 81.8359 444.846 83.1361 443.535C87.0871 449.947 90.2543 452.024 92.5293 452.024C94.1953 452.024 95.3825 450.909 96.0475 449.565C96.5349 450.985 97.6242 452.231 99.3948 452.231C101.594 452.231 104.845 450.309 109.3 444.407C110.123 445.497 110.534 446.667 110.535 447.836C110.536 450.01 109.115 452.183 106.271 453.842C103.415 455.507 99.6641 456.34 95.909 456.34Z" fill="#B4B6B4"/>
<path d="M126.787 367.271C84.4018 381.197 84.0182 409.654 93.5732 429.916C95.9829 434.018 103.276 436.22 109.624 411.02L98.4912 412.452L111.465 405.852L114.835 395.743L104.017 396.55L117.748 390.755C122.807 375.398 126.787 367.271 126.787 367.271Z" fill="#AD58B2"/>
<path d="M97.5975 428.876C97.1999 426.505 96.5767 424.162 95.6926 421.881C94.4442 407.095 96.0232 391.889 114.253 374.891V392.23L104.017 396.55L114.253 395.787V397.488L111.465 405.852L98.4912 412.452L109.624 411.02C109.341 412.141 109.057 413.207 108.772 414.222C103.163 418.194 99.618 423.311 97.5975 428.876ZM93.919 418.046C92.5281 415.482 90.756 413.03 88.5484 410.746C88.519 410.112 88.5039 409.475 88.5039 408.839C88.5059 395.586 95.0907 382.016 114.253 372.378V374.805C97.2394 387.991 92.3079 402.654 93.919 418.046Z" fill="#D9D9D9"/>
<path d="M114.804 374.386C92.4526 391.41 90.4352 410.927 96.7493 431.303C94.5154 413.361 92.1019 395.22 114.804 374.386Z" fill="#909090"/>
<path d="M55 396.176C96.7803 402.079 101.849 428.515 96.3053 448.981C94.7399 453.203 88.3127 456.47 78.2285 434.058L88.8341 433.535L75.6583 429.553L70.8463 420.701L81.0543 419.647L67.3068 416.539C60.0535 403.082 55 396.176 55 396.176Z" fill="#AD58B2"/>
<path d="M92.535 452.023C89.383 452.023 84.5168 448.034 78.2285 434.058L88.8341 433.535L75.6583 429.552L70.8463 420.701L81.0543 419.646L67.3068 416.539C60.0535 403.081 55 396.176 55 396.176C83.7392 400.236 95.1076 414.011 97.6006 428.876C95.2475 435.359 94.9633 442.449 95.9012 449.037C95.943 449.214 95.9938 449.391 96.0533 449.564C95.3883 450.909 94.2011 452.023 92.535 452.023Z" fill="#D9D9D9"/>
<path d="M67.3477 400.803C90.9823 412.932 96.0934 430.773 93.5862 450.803C92.6959 433.72 91.9402 416.422 67.3477 400.803Z" fill="#909090"/>
<path d="M139.019 406.083C100.704 406.711 93.1878 429.969 95.902 449.037C96.842 453.018 102.27 456.686 113.859 437.617L104.358 435.955L116.678 433.846L122.002 426.407L112.919 424.312L125.656 423.055C133.695 411.74 139.019 406.083 139.019 406.083Z" fill="#D9D9D9"/>
<path d="M127.374 408.868C104.719 417.145 98.1229 432.65 98.1485 450.983C100.856 435.688 103.466 420.183 127.374 408.868Z" fill="#909090"/>
<path d="M420.453 417.414C420.726 447.126 421.041 475.736 421.041 475.736C421.042 476.057 421.255 476.377 421.677 476.622C422.521 477.112 423.887 477.112 424.726 476.622C425.146 476.377 425.354 476.057 425.352 475.736C425.352 475.736 425.668 447.134 425.939 417.426C424.113 417.49 422.28 417.486 420.453 417.414Z" fill="#DADBD8"/>
<path d="M384.477 454.303C384.479 454.623 384.691 454.944 385.113 455.189C385.957 455.678 387.323 455.678 388.161 455.189C388.581 454.944 388.79 454.623 388.788 454.303C388.788 454.303 390.161 433.865 392.131 409.571C390.155 408.338 388.434 407.018 386.969 405.633C385.378 431.627 384.477 454.303 384.477 454.303Z" fill="#DADBD8"/>
<path d="M457.608 454.303C457.606 454.623 457.815 454.944 458.234 455.189C459.074 455.678 460.439 455.678 461.283 455.189C461.706 454.944 461.918 454.623 461.92 454.303C461.92 454.303 461.021 431.702 459.434 405.76C457.971 407.14 456.25 408.455 454.273 409.68C456.239 433.927 457.608 454.303 457.608 454.303Z" fill="#DADBD8"/>
<path d="M465.718 387.953C465.753 394.279 461.638 400.604 453.361 405.431C436.808 415.085 409.885 415.085 393.225 405.432C384.894 400.605 380.708 394.279 380.673 387.953H380.672V392.759C380.697 397.227 382.802 401.692 386.966 405.632C388.432 407.017 390.152 408.337 392.128 409.57C392.489 409.794 392.848 410.019 393.224 410.238C400.819 414.638 410.546 417.025 420.452 417.413C422.279 417.486 424.111 417.49 425.938 417.425C435.934 417.071 445.747 414.678 453.361 410.237C453.674 410.054 453.97 409.866 454.27 409.679C456.247 408.454 457.967 407.14 459.431 405.759C463.64 401.787 465.743 397.275 465.718 392.759H465.718V387.953Z" fill="#DADBD8"/>
<path d="M393.225 405.432C409.884 415.085 436.808 415.085 453.361 405.431C461.637 400.604 465.752 394.28 465.718 387.953C465.682 381.628 461.494 375.303 453.164 370.476C436.504 360.823 409.581 360.823 393.029 370.476C384.753 375.303 380.636 381.628 380.672 387.953C380.707 394.28 384.894 400.605 393.225 405.432Z" fill="#DADBD8"/>
<path d="M391.677 415.229C391.825 413.373 391.977 411.482 392.131 409.57C391.977 411.484 391.826 413.371 391.677 415.229ZM386.801 408.42C386.856 407.496 386.913 406.566 386.969 405.632C386.913 406.566 386.856 407.495 386.801 408.42Z" fill="#9FA1A1"/>
<path d="M423.203 476.99C422.652 476.99 422.099 476.868 421.677 476.622C421.255 476.378 421.042 476.057 421.041 475.736C421.041 475.736 420.726 447.127 420.453 417.414C420.472 419.403 420.49 421.386 420.509 423.356C421.46 423.393 422.413 423.411 423.366 423.411C424.206 423.411 425.045 423.397 425.885 423.368C425.902 421.397 425.921 419.415 425.939 417.426C425.668 447.135 425.352 475.736 425.352 475.736C425.352 475.738 425.352 475.741 425.352 475.743C425.35 476.062 425.142 476.38 424.726 476.622C424.307 476.868 423.755 476.99 423.203 476.99Z" fill="#CED0CD"/>
<path d="M423.366 423.409C422.413 423.409 421.46 423.391 420.509 423.354C420.49 421.384 420.472 419.401 420.453 417.412C420.641 417.42 420.829 417.427 421.016 417.432C421.796 417.456 422.577 417.469 423.358 417.469C423.359 417.469 423.361 417.469 423.362 417.469C423.364 417.469 423.365 417.469 423.367 417.469C424.122 417.469 424.876 417.457 425.63 417.435C425.693 417.433 425.757 417.43 425.821 417.428C425.86 417.427 425.899 417.426 425.939 417.424C425.921 419.413 425.902 421.395 425.885 423.366C425.045 423.395 424.206 423.409 423.366 423.409Z" fill="#ABADAC"/>
<path d="M386.639 455.556C386.087 455.556 385.535 455.433 385.113 455.189C384.691 454.944 384.479 454.623 384.477 454.303C384.477 454.303 385.315 433.228 386.8 408.42C386.743 409.372 386.687 410.319 386.632 411.259C388.058 412.654 389.74 413.985 391.677 415.23C389.954 436.958 388.788 454.303 388.788 454.303C388.788 454.306 388.788 454.308 388.788 454.311C388.787 454.628 388.578 454.946 388.161 455.189C387.742 455.433 387.191 455.556 386.639 455.556Z" fill="#CED0CD"/>
<path d="M391.678 415.229C389.741 413.984 388.059 412.653 386.633 411.259C386.688 410.318 386.744 409.371 386.801 408.42C386.857 407.495 386.913 406.566 386.97 405.632C388.435 407.017 390.156 408.337 392.132 409.57C391.977 411.482 391.825 413.373 391.678 415.229Z" fill="#ABADAC"/>
<path d="M459.753 455.556C459.201 455.556 458.65 455.433 458.23 455.189C457.813 454.946 457.604 454.628 457.603 454.311C457.603 454.308 457.603 454.306 457.603 454.303C457.603 454.303 456.442 437.016 454.723 415.341C456.66 414.1 458.342 412.774 459.767 411.384C461.143 434.882 461.915 454.303 461.915 454.303C461.913 454.623 461.701 454.944 461.279 455.189C460.857 455.433 460.304 455.556 459.753 455.556Z" fill="#CED0CD"/>
<path d="M454.711 415.203C454.657 414.517 454.602 413.825 454.547 413.131C454.602 413.825 454.657 414.516 454.711 415.203ZM459.713 410.473C459.656 409.529 459.601 408.579 459.542 407.625C459.601 408.579 459.657 409.529 459.713 410.473Z" fill="#CED0CD"/>
<path d="M454.727 415.34C454.724 415.294 454.72 415.248 454.716 415.203C454.662 414.515 454.607 413.824 454.552 413.13C454.461 411.99 454.368 410.84 454.273 409.679C456.25 408.454 457.971 407.14 459.434 405.759C459.473 406.383 459.511 407.004 459.547 407.624C459.606 408.579 459.661 409.528 459.718 410.472C459.736 410.776 459.753 411.08 459.771 411.383C458.346 412.773 456.665 414.1 454.727 415.34Z" fill="#ABADAC"/>
<path d="M423.36 417.471C423.359 417.471 423.357 417.471 423.356 417.471C422.575 417.471 421.794 417.458 421.015 417.433C420.827 417.428 420.64 417.421 420.452 417.413C410.546 417.025 400.819 414.638 393.224 410.238C392.848 410.019 392.489 409.794 392.128 409.57C390.152 408.337 388.432 407.017 386.966 405.632C382.802 401.692 380.697 397.227 380.672 392.759V387.953H380.673C380.708 394.279 384.894 400.605 393.225 405.432C393.257 405.45 393.289 405.468 393.32 405.487C401.637 410.276 412.489 412.671 423.329 412.672C423.33 412.672 423.331 412.672 423.332 412.672C423.334 412.672 423.335 412.672 423.336 412.672C434.112 412.672 444.873 410.305 453.119 405.571C453.2 405.524 453.281 405.478 453.361 405.431C461.569 400.644 465.685 394.385 465.718 388.111V392.759H465.718C465.718 392.786 465.718 392.813 465.718 392.838C465.719 397.328 463.616 401.811 459.431 405.759C457.967 407.139 456.247 408.454 454.27 409.679C453.97 409.866 453.674 410.054 453.361 410.237C445.747 414.678 435.934 417.071 425.938 417.425C425.898 417.427 425.858 417.428 425.82 417.429C425.755 417.431 425.692 417.434 425.628 417.436C424.874 417.459 424.119 417.471 423.365 417.471C423.363 417.471 423.362 417.471 423.36 417.471Z" fill="#415993"/>
<path d="M423.367 417.471C424.121 417.471 424.876 417.459 425.631 417.436C424.876 417.459 424.122 417.471 423.367 417.471Z" fill="#BCBEBC"/>
<path d="M423.332 412.672C423.331 412.672 423.33 412.672 423.329 412.672C412.49 412.671 401.637 410.275 393.32 405.487C393.289 405.468 393.257 405.45 393.225 405.432C384.894 400.605 380.708 394.28 380.673 387.953C380.673 387.928 380.672 387.904 380.672 387.879C380.669 381.579 384.786 375.284 393.03 370.476C397.598 367.812 402.952 365.883 408.667 364.69C408.574 373.351 410.331 381.715 412.659 386.035L412.67 386.034C413.136 387.094 414.074 388.1 415.506 388.931C417.621 390.156 420.386 390.768 423.148 390.768C425.91 390.768 428.669 390.156 430.769 388.931C432.226 388.08 433.163 387.046 433.605 385.957C435.912 381.62 437.648 373.315 437.559 364.71C443.248 365.905 448.594 367.828 453.165 370.476C461.495 375.303 465.683 381.628 465.718 387.953C465.718 387.978 465.718 388.003 465.718 388.028C465.718 388.056 465.718 388.083 465.718 388.111C465.685 394.385 461.569 400.644 453.361 405.431C453.281 405.478 453.2 405.525 453.119 405.572C444.873 410.305 434.112 412.672 423.336 412.672C423.335 412.672 423.334 412.672 423.332 412.672Z" fill="#EDEDEB"/>
<path d="M437.449 361.591L423.117 362.009L408.786 361.591C408.168 371.302 410.058 381.2 412.663 386.035L412.674 386.034C413.14 387.094 414.078 388.1 415.51 388.931C419.74 391.381 426.572 391.381 430.773 388.931C432.231 388.081 433.167 387.046 433.609 385.957C436.193 381.098 438.062 371.254 437.449 361.591Z" fill="#415993"/>
<path d="M433.213 355.699C438.828 358.952 438.858 364.227 433.279 367.48C427.701 370.733 418.627 370.733 413.012 367.48C407.397 364.227 407.367 358.953 412.946 355.699C418.524 352.446 427.598 352.446 433.213 355.699Z" fill="#E7E8E5"/>
<path d="M430.994 356.994C435.375 359.533 435.398 363.647 431.047 366.186C426.693 368.723 419.615 368.723 415.234 366.186C410.854 363.647 410.83 359.533 415.182 356.994C419.536 354.456 426.614 354.456 430.994 356.994Z" fill="#DADBD8"/>
<path d="M423.147 368.089C421.681 368.089 420.215 367.923 418.839 367.59C420.793 367.548 422.737 366.861 424.253 365.62C426.023 365.476 427.388 364.98 428.403 364.221C429.055 364.194 429.699 364.092 430.321 363.914C431.847 363.478 433.217 362.587 434.285 361.389C434.289 361.463 434.291 361.536 434.291 361.609C434.292 363.266 433.21 364.922 431.043 366.186C428.866 367.454 426.008 368.089 423.147 368.089ZM411.941 361.279C412.004 360.458 412.333 359.641 412.93 358.879C413.529 358.928 414.119 359.024 414.685 359.164C413.785 359.964 412.919 360.686 411.941 361.279Z" fill="#B4B6B4"/>
<path d="M421.918 361.997C424.324 363.976 427.546 364.709 430.323 363.915C433.093 363.123 435.35 360.831 436.215 357.937C434.462 357.174 433.083 356.047 431.613 354.734C433.661 354.191 436.039 354.277 438.127 354.964C439.255 353.236 439.545 350.748 438.618 348.731C436.147 347.643 433.309 347.44 430.848 348.192C433.026 346.299 435.794 345.419 438.704 345.707C438.991 338.639 436.819 333.595 436.819 333.595C431.474 333.875 426.295 336.185 424.548 337.848C424.25 339.993 425.139 343.544 425.139 343.544C422.698 342.185 422.656 339.86 422.656 339.86C419.312 340.7 417.883 342.374 417.36 343.652C417.607 345.754 419.538 349.266 420.526 350.087C417.386 349.136 416.112 345.625 416.112 345.625C413.025 352.969 413.614 361.282 421.918 361.997Z" fill="#AD58B2"/>
<path d="M428.405 364.221C430.067 362.976 430.784 361.025 430.783 358.769C430.782 356.414 429.997 353.727 428.691 351.167C428.691 351.167 427.713 354.264 424.832 355.091C425.707 354.368 427.302 351.27 427.405 349.412C427.205 349.01 426.895 348.563 426.438 348.119C428.553 343.969 431.497 339.669 435.431 335.728C435.553 335.607 435.553 335.411 435.431 335.289C435.372 335.229 435.293 335.199 435.214 335.199C435.135 335.199 435.056 335.229 434.995 335.289C431.057 339.234 428.097 343.538 425.96 347.701C425.121 347.04 423.915 346.418 422.209 346.005C422.209 346.005 422.21 346.018 422.21 346.046C422.21 346.345 422.126 348.169 420.099 349.256C420.099 349.256 420.446 347.485 420.446 345.794C420.446 345.23 420.409 344.675 420.306 344.197C419.771 343.74 418.931 343.226 417.876 342.723C418.641 341.648 420.081 340.506 422.655 339.86C422.655 339.869 422.703 342.188 425.138 343.543C425.138 343.543 424.485 340.933 424.486 338.836C424.486 338.488 424.504 338.153 424.547 337.847C426.294 336.184 431.474 333.874 436.818 333.595C436.818 333.595 438.727 338.028 438.73 344.405C438.73 344.831 438.721 345.265 438.704 345.706C438.343 345.67 437.984 345.653 437.628 345.653C435.115 345.653 432.755 346.534 430.847 348.191C431.83 347.891 432.874 347.743 433.93 347.743C435.518 347.743 437.134 348.077 438.617 348.73C438.994 349.55 439.169 350.447 439.17 351.34C439.17 352.643 438.796 353.937 438.126 354.963C436.949 354.576 435.679 354.38 434.429 354.38C433.461 354.38 432.505 354.497 431.612 354.734C433.082 356.046 434.461 357.173 436.214 357.937C435.349 360.831 433.092 363.123 430.322 363.914C429.701 364.092 429.057 364.194 428.405 364.221ZM415.001 353.35C414.801 353.293 414.599 353.242 414.395 353.196C414.397 353.103 414.399 353.008 414.401 352.914C414.605 353.052 414.805 353.198 415.001 353.35Z" fill="#D9D9D9"/>
<path d="M421.727 362.792L421.703 362.791C421.533 362.778 421.406 362.63 421.419 362.459C421.928 355.688 425.789 344.509 434.993 335.29C435.114 335.169 435.309 335.168 435.429 335.29C435.551 335.411 435.551 335.607 435.429 335.728C426.346 344.828 422.537 355.84 422.034 362.506C422.021 362.669 421.888 362.792 421.727 362.792Z" fill="#717171"/>
<path d="M424.258 365.62C422.124 367.368 419.142 368.017 416.48 367.314C413.815 366.611 411.538 364.574 410.537 362C412.147 361.325 413.383 360.327 414.69 359.165C412.72 358.675 410.473 358.742 408.534 359.348C407.352 357.803 406.918 355.582 407.672 353.787C409.951 352.831 412.63 352.667 415.004 353.351C412.826 351.653 410.146 350.85 407.398 351.087C406.675 344.766 408.424 340.274 408.424 340.274C413.517 340.584 418.559 342.701 420.309 344.197C420.72 346.109 420.103 349.257 420.103 349.257C422.314 348.07 422.212 346.005 422.212 346.005C425.401 346.78 426.842 348.276 427.408 349.412C427.305 351.271 425.71 354.368 424.835 355.091C427.716 354.265 428.694 351.167 428.694 351.167C432.013 357.673 431.963 364.997 424.258 365.62Z" fill="#AD58B2"/>
<path d="M418.656 367.592C417.923 367.592 417.19 367.5 416.48 367.313C413.815 366.61 411.538 364.574 410.537 361.999C412.148 361.324 413.383 360.326 414.69 359.164C414.124 359.024 413.534 358.928 412.935 358.88C412.612 358.853 412.286 358.84 411.959 358.84C411.101 358.84 410.24 358.931 409.416 359.113C409.116 359.179 408.822 359.256 408.535 359.347C407.754 358.327 407.3 357.013 407.298 355.72C407.297 355.056 407.416 354.397 407.673 353.786C409.019 353.221 410.506 352.933 411.986 352.933C413.012 352.933 414.033 353.071 415.005 353.35C413.076 351.847 410.753 351.045 408.338 351.045C408.026 351.045 407.712 351.058 407.398 351.086C407.273 349.999 407.223 348.967 407.223 348.002C407.226 343.354 408.425 340.274 408.425 340.274C413.517 340.584 418.559 342.7 420.309 344.197C420.412 344.675 420.45 345.23 420.45 345.794C420.45 347.485 420.103 349.256 420.103 349.256C422.13 348.169 422.214 346.345 422.214 346.046C422.214 346.018 422.213 346.005 422.213 346.005C425.402 346.779 426.843 348.276 427.408 349.411C427.305 351.27 425.711 354.368 424.836 355.091C427.717 354.264 428.695 351.167 428.695 351.167C430.001 353.727 430.786 356.414 430.787 358.769C430.788 361.025 430.071 362.976 428.408 364.221C427.393 364.98 426.028 365.477 424.258 365.62C422.742 366.861 420.798 367.548 418.845 367.59C418.781 367.591 418.719 367.592 418.656 367.592Z" fill="#D9D9D9"/>
<path d="M424.458 366.359C424.309 366.359 424.177 366.249 424.154 366.095C423.278 360.199 419.008 350.413 409.862 342.235C409.734 342.121 409.723 341.925 409.836 341.798C409.95 341.669 410.144 341.658 410.273 341.772C419.541 350.06 423.872 360.005 424.764 366.004C424.789 366.173 424.673 366.331 424.505 366.356L424.458 366.359Z" fill="#909090"/>
<path d="M279.458 161.068L279.467 161.061C279.209 160.157 278.939 159.349 278.511 158.67C277.57 157.176 275.864 156.304 271.858 156.384C271.647 156.382 270.6 156.489 270.221 156.705L119.734 242.599C117.81 243.697 116.325 245.347 115.384 247.277C114.67 248.739 114.262 250.357 114.262 252.042V497.732C114.262 502.116 116.827 503.77 119.675 503.954C120.894 504.034 122.164 503.848 123.309 503.486L123.354 503.454C123.5 503.402 123.646 503.359 123.788 503.278L274.28 417.278C277.66 415.345 279.746 411.742 279.746 407.839V162.252C279.746 161.815 279.63 161.423 279.458 161.068Z" fill="#AD58B2"/>
<path d="M120.242 503.972C120.052 503.972 119.863 503.966 119.675 503.954C118.998 502.992 118.575 501.686 118.575 499.927V254.238C118.575 252.552 118.984 250.935 119.698 249.472C119.819 249.223 119.974 248.993 120.114 248.755C121.054 247.141 122.372 245.751 124.048 244.794L141.271 234.964V236.786V244.963L125.733 253.963V485.639L272.88 400.416V386.557L279.746 382.633V407.838C279.746 411.741 277.66 415.344 274.28 417.277L123.788 503.278C123.646 503.358 123.5 503.401 123.354 503.453L123.309 503.485C122.34 503.792 121.283 503.972 120.242 503.972ZM201.259 451.27C201.259 452.816 202.035 453.681 203.274 453.681C203.919 453.681 204.689 453.447 205.541 452.954C208.242 451.389 210.735 447.784 211.1 444.918C211.13 444.679 211.145 444.454 211.145 444.241C211.144 442.695 210.362 441.833 209.123 441.833C208.479 441.833 207.711 442.066 206.863 442.557C204.149 444.13 201.669 447.726 201.304 450.594C201.273 450.832 201.259 451.058 201.259 451.27ZM114.262 252.041C114.262 250.357 114.67 248.739 115.384 247.276C116.322 245.353 117.8 243.707 119.715 242.609C118.127 243.52 116.86 244.822 115.932 246.331C115.741 246.642 115.544 246.948 115.384 247.276C114.67 248.739 114.262 250.357 114.262 252.041Z" fill="#01257D"/>
<path d="M119.675 503.954C116.827 503.769 114.262 502.115 114.262 497.732V252.042C114.262 250.357 114.67 248.739 115.384 247.276C115.544 246.948 115.741 246.642 115.932 246.332L120.114 248.755C119.974 248.994 119.819 249.223 119.698 249.472C118.984 250.935 118.575 252.553 118.575 254.238V499.928C118.575 501.686 118.998 502.993 119.675 503.954Z" fill="#01257D"/>
<path d="M120.112 248.755L115.93 246.331C116.858 244.822 118.125 243.52 119.714 242.609C119.72 242.605 119.726 242.602 119.732 242.598L141.269 230.306V234.964L124.046 244.794C122.37 245.751 121.052 247.141 120.112 248.755Z" fill="#415993"/>
<path d="M272.877 168.738L125.73 253.962V485.639L272.877 400.415V168.738Z" fill="#33535F"/>
<path d="M206.862 442.557C204.148 444.13 201.668 447.726 201.303 450.594C200.937 453.46 202.825 454.527 205.539 452.954C208.241 451.388 210.734 447.784 211.099 444.918C211.463 442.05 209.564 440.991 206.862 442.557Z" fill="#AD58B2"/>
<path d="M203.273 453.681C202.034 453.681 201.258 452.816 201.258 451.27C201.258 451.057 201.273 450.832 201.303 450.594C201.668 447.726 204.148 444.13 206.863 442.557C207.71 442.066 208.478 441.833 209.122 441.833C210.362 441.833 211.144 442.695 211.145 444.24C211.145 444.453 211.13 444.679 211.099 444.918C210.734 447.784 208.241 451.388 205.54 452.954C204.688 453.447 203.919 453.681 203.273 453.681Z" fill="#D9D9D9"/>
<path d="M287.019 156.609V149.09C287.019 148.704 286.917 148.359 286.764 148.047L286.771 148.04C286.546 147.243 286.307 146.532 285.93 145.935C285.1 144.619 283.599 143.851 280.07 143.921C279.885 143.919 278.962 144.013 278.63 144.204L146.086 219.855C144.391 220.823 143.083 222.277 142.254 223.975C141.626 225.264 141.266 226.689 141.266 228.173V236.786L145.065 238.983L287.019 156.609Z" fill="#AD58B2"/>
<path d="M145.065 238.984L141.266 236.786V452.087C141.266 455.948 143.525 457.405 146.033 457.568C147.107 457.638 148.226 457.475 149.234 457.155L149.274 457.127C149.402 457.08 149.531 457.044 149.656 456.973L282.204 381.227C285.181 379.524 287.019 376.35 287.019 372.912V156.609L145.065 238.984Z" fill="#AD58B2"/>
<path d="M145.77 457.545C143.369 457.298 141.266 455.811 141.266 452.087C141.266 452.086 141.266 452.086 141.266 452.086C141.266 455.811 143.369 457.298 145.77 457.545Z" fill="#263F48"/>
<path d="M145.062 238.983V230.107C145.062 228.623 145.423 227.198 146.051 225.909C146.158 225.691 146.295 225.488 146.417 225.278C147.246 223.857 148.407 222.633 149.883 221.79L282.426 146.139C282.757 145.95 283.668 145.855 283.863 145.855C283.864 145.855 283.866 145.855 283.867 145.855C284.003 145.852 284.135 145.851 284.264 145.851C284.884 145.851 285.431 145.881 285.927 145.935C286.305 146.532 286.544 147.243 286.769 148.04L286.762 148.047C286.914 148.359 287.017 148.704 287.017 149.09V156.609L145.062 238.983Z" fill="#01257D"/>
<path d="M142.258 223.975C143.084 222.281 144.386 220.832 146.073 219.864C144.674 220.667 143.558 221.812 142.74 223.143C142.572 223.416 142.398 223.686 142.258 223.975Z" fill="#B35EB6"/>
<path d="M145.065 238.983L141.266 236.786V228.173C141.266 226.689 141.626 225.264 142.254 223.975C142.395 223.687 142.569 223.416 142.737 223.144L146.42 225.278C146.297 225.488 146.16 225.691 146.053 225.909C145.425 227.198 145.065 228.623 145.065 230.107V238.983Z" fill="#415993"/>
<path d="M146.421 225.277L142.738 223.143C143.556 221.813 144.672 220.667 146.071 219.865C146.077 219.861 146.082 219.858 146.087 219.855L278.631 144.204C278.962 144.014 279.873 143.92 280.068 143.92C280.069 143.92 280.071 143.92 280.072 143.92C280.221 143.917 280.365 143.916 280.506 143.916C283.726 143.916 285.138 144.674 285.932 145.934C285.435 145.88 284.888 145.85 284.268 145.85C284.139 145.85 284.007 145.851 283.871 145.854C283.87 145.854 283.868 145.854 283.867 145.854C283.672 145.854 282.762 145.949 282.431 146.138L149.887 221.789C148.411 222.632 147.25 223.856 146.421 225.277Z" fill="#415993"/>
<path d="M146.53 457.583C146.363 457.583 146.196 457.578 146.031 457.567C145.435 456.72 145.062 455.569 145.062 454.021V238.983L287.017 156.609V372.911C287.017 376.349 285.178 379.523 282.201 381.226L149.654 456.972C149.529 457.043 149.4 457.08 149.272 457.127L149.231 457.154C148.379 457.425 147.447 457.583 146.53 457.583ZM156.236 438.714L168.469 431.609L171.04 426.271V412.902L156.236 421.517V438.714ZM174.064 427.03L215.307 403.08V399.452L174.064 423.402V427.03ZM174.064 421.022L215.307 397.022V393.394L174.064 417.394V421.022ZM156.236 415.638L168.469 408.532L171.04 403.194V389.825L156.236 398.44V415.638ZM174.064 414.8L215.307 390.767V387.139L174.064 411.171V414.8ZM277.152 306.687C276.972 306.687 276.788 306.733 276.614 306.834L221.571 338.709C220.569 339.289 219.952 340.361 219.952 341.522V403.847C219.952 404.479 220.469 404.931 221.033 404.931C221.212 404.931 221.397 404.886 221.57 404.785L276.613 372.909C277.615 372.33 278.233 371.258 278.233 370.097V307.772C278.233 307.139 277.715 306.687 277.152 306.687ZM174.064 403.953L182.917 398.956V395.327L174.064 400.325V403.953ZM174.064 397.945L214.919 374.344V370.716L174.064 394.318V397.945ZM156.236 392.561L168.469 385.456L171.04 380.117V366.749L156.236 375.363V392.561ZM174.064 391.723L214.919 368.088V364.46L174.064 388.096V391.723ZM174.064 380.876L202.136 364.703V361.076L174.064 377.248V380.876ZM174.064 374.868L214.481 351.511V347.882L174.064 371.241V374.868ZM174.064 368.646L214.481 345.255V341.626L174.064 365.019V368.646ZM214.481 235.139L156.202 268.884V366.522L214.481 332.777V235.139ZM221.265 331.479L223.85 328.412L226.439 328.483L225.937 325.447L228.023 321.877L225.128 323.072L223.829 320.795L222.539 324.573L219.649 326.729L221.746 327.875L221.265 331.479ZM233.817 324.207L236.403 321.139L238.991 321.209L238.49 318.174L240.575 314.604L237.681 315.799L236.381 313.522L235.092 317.299L232.201 319.456L234.306 320.598L233.817 324.207ZM221.265 320.494L223.85 317.428L226.439 317.498L225.937 314.462L228.023 310.892L225.128 312.086L223.829 309.81L222.539 313.588L219.649 315.745L221.746 316.891L221.265 320.494ZM246.37 316.934L248.955 313.867L251.549 313.933L251.042 310.901L253.128 307.332L250.233 308.526L248.933 306.249L247.644 310.027L244.753 312.184L246.858 313.326L246.37 316.934ZM233.817 313.222L236.403 310.154L238.991 310.225L238.49 307.19L240.575 303.62L237.681 304.814L236.381 302.538L235.092 306.315L232.201 308.472L234.306 309.614L233.817 313.222ZM221.265 309.51L223.85 306.443L226.439 306.514L225.937 303.478L228.023 299.908L225.128 301.103L223.829 298.826L222.539 302.603L219.649 304.76L221.746 305.906L221.265 309.51ZM246.37 305.95L248.955 302.882L251.549 302.949L251.042 299.917L253.128 296.347L250.233 297.542L248.933 295.265L247.644 299.042L244.753 301.199L246.858 302.342L246.37 305.95ZM233.817 302.238L236.403 299.171L238.991 299.24L238.49 296.205L240.575 292.635L237.681 293.83L236.381 291.553L235.092 295.33L232.201 297.487L234.306 298.63L233.817 302.238ZM258.922 298.676L261.507 295.61L264.102 295.676L263.594 292.645L265.68 289.074L262.786 290.269L261.486 287.992L260.203 291.766L257.305 293.927L259.411 295.069L258.922 298.676ZM246.37 294.965L248.955 291.898L251.549 291.964L251.042 288.933L253.128 285.363L250.233 286.557L248.933 284.28L247.644 288.058L244.753 290.215L246.858 291.357L246.37 294.965ZM219.889 294.416L263.19 269.458V265.309L219.889 290.267V294.416ZM219.889 287.548L277.304 254.373V250.224L219.889 283.399V287.548ZM219.889 280.432L277.304 247.219V243.07L219.889 276.284V280.432ZM219.889 267.822L264.537 242.002V237.853L219.889 263.673V267.822ZM219.889 260.708L277.304 227.494V223.347L219.889 256.559V260.708ZM219.889 247.938L247.729 231.889V227.423L219.889 243.472V247.938ZM219.889 239.832L261.797 215.567V208.472L219.889 232.737V239.832ZM207.041 234.069L231.423 219.865V215.717L207.041 229.92V234.069ZM196.572 232.709L238.479 208.444V204.295L196.572 228.56V232.709Z" fill="white"/>
<path d="M146.034 457.566C143.525 457.403 141.266 455.946 141.266 452.086V236.785L145.065 238.983V454.02C145.065 455.569 145.437 456.719 146.034 457.566Z" fill="#415993"/>
<path d="M214.482 235.138L156.203 268.883V366.521L214.482 332.776V235.138Z" fill="white"/>
<path d="M159.441 270.759L211.248 240.762V330.901L159.441 360.898V270.759Z" fill="#33535F"/>
<path d="M159.441 360.898V270.759L211.248 240.762V308.365C208.648 306.513 205.563 305.545 202.435 305.545C201.2 305.545 199.96 305.695 198.74 306.001L193.935 307.209L174.51 314.607L159.441 326.488V360.898Z" fill="#6A858C"/>
<path d="M211.248 330.972L159.441 360.97V326.488L174.51 314.607L193.935 307.208L198.74 306.001C203.053 304.918 207.623 305.781 211.248 308.365V330.972Z" fill="#F2575D"/>
<path d="M181.328 305.857V305.853L181.339 305.86L181.328 305.857Z" fill="#F6879F"/>
<path d="M171.156 288.444C169.652 283.382 169.979 277.572 172.991 273.24C174.917 270.473 177.821 268.468 180.985 267.322C184.15 266.176 187.569 265.853 190.929 266.03C193.576 266.172 196.258 266.634 198.596 267.884C201.455 269.411 203.668 272.112 204.608 275.222C205.548 278.333 205.203 281.812 203.672 284.674C202.464 286.934 200.591 288.758 198.65 290.426C194.788 293.742 190.53 296.59 185.997 298.9C184.865 299.476 183.714 300.019 182.549 300.527C181.756 300.873 180.255 301.85 179.37 301.673C178.474 301.494 177.545 299.825 177.011 299.143C176.238 298.158 175.5 297.143 174.814 296.095C173.262 293.725 171.966 291.169 171.156 288.444Z" fill="#17282F"/>
<path d="M198.231 330.922C197.553 328.273 196.684 326.487 196.684 326.487L194.207 327.079C194.388 328.465 194.49 329.918 194.537 331.361C194.57 332.352 194.457 336.036 194.277 340.798L199.828 337.584C199.337 335.401 198.807 333.174 198.231 330.922Z" fill="#F2575D"/>
<path d="M194.272 327.605C194.269 327.605 194.266 327.604 194.263 327.604C194.243 327.43 194.23 327.25 194.207 327.077C194.23 327.252 194.252 327.429 194.272 327.605Z" fill="#A7AAA9"/>
<path d="M194.862 327.655C194.665 327.655 194.468 327.636 194.271 327.605C194.252 327.429 194.23 327.253 194.207 327.079L196.684 326.486C196.684 326.486 196.739 326.623 196.825 326.855C196.422 327.21 195.945 327.484 195.42 327.599C195.236 327.638 195.049 327.655 194.862 327.655Z" fill="#F2575D"/>
<path d="M192.88 320.566L190.929 319.308L186.383 321.794C188.377 323.626 191.745 323.926 191.745 323.926L192.88 320.566Z" fill="#AD58B2"/>
<path d="M195.883 320.082L196.477 318.746L198.768 320.186C198.322 321.682 197.279 322.375 197.279 322.375L195.883 320.082Z" fill="#AD58B2"/>
<path d="M191.745 323.926C191.745 323.926 188.377 323.626 186.383 321.794L190.929 319.308L192.88 320.566L191.745 323.926Z" fill="#F2575D"/>
<path d="M197.279 322.375L195.883 320.082L196.477 318.746L198.768 320.186C198.322 321.682 197.279 322.375 197.279 322.375Z" fill="#F2575D"/>
<path d="M191.742 323.926C191.934 322.77 192.32 321.598 192.877 320.567C193.879 320.406 194.881 320.245 195.883 320.084C196.428 320.782 196.91 321.569 197.28 322.376C197.428 324.525 196.682 326.488 196.682 326.488C195.564 327.123 194.205 327.079 194.205 327.079C192.416 325.965 191.742 323.926 191.742 323.926Z" fill="#F2575D"/>
<path d="M179.02 297.221V311.03C181.759 314.814 193.265 319.621 193.93 319.507C194.769 319.364 193.946 311.923 193.946 311.28L193.932 305.685C191.697 305.345 189.504 304.947 187.53 304.534C183.601 303.708 180.411 300.929 179.02 297.221Z" fill="#F8A58D"/>
<path d="M188.933 307.808C190.569 308.263 192.249 308.511 193.94 308.699V305.685C191.704 305.345 189.511 304.947 187.537 304.534C183.843 303.757 180.824 301.243 179.316 297.865C179.707 300.179 180.71 302.394 182.317 304.092C184.08 305.953 186.467 307.123 188.933 307.808Z" fill="#892F3A"/>
<path d="M202.531 275.488C200.476 277.604 197.103 278.992 194.159 279.024C191.214 279.057 188.363 278.082 185.525 277.297C185.279 278.67 184.584 279.958 183.573 280.914C182.56 281.87 180.936 282.509 179.556 282.672C179.961 285.335 179.951 288.062 179.524 290.723C179.433 291.287 179.054 291.801 178.508 291.961C177.551 292.24 176.918 291.257 176.451 290.461C175.922 289.556 175.267 288.692 174.377 288.138C173.488 287.584 172.329 287.385 171.381 287.831C170.606 288.194 170.057 288.946 169.801 289.765C169.545 290.583 169.555 291.465 169.677 292.315C169.881 293.73 170.403 295.123 171.326 296.213C172.249 297.304 173.596 298.066 175.02 298.124C176.445 298.181 177.862 297.607 178.57 296.365L178.633 296.626C178.736 297.051 178.869 297.465 179.021 297.869C180.29 301.247 183.196 303.78 186.776 304.532C188.574 304.909 190.573 305.271 192.61 305.582C193.611 305.734 194.618 305.878 195.622 305.996C199.45 306.452 202.973 303.847 203.645 300.039C205.017 292.259 205.473 283.196 202.531 275.488Z" fill="#F8A58D"/>
<path d="M195.773 287.078L200.732 293.105L196.183 294.719L195.773 287.078Z" fill="#A64A56"/>
<path d="M195.773 287.078L200.732 293.105L196.183 294.719L195.773 287.078Z" fill="#892F3A"/>
<path d="M188.766 287.832C188.761 288.587 189.367 289.203 190.119 289.208C190.871 289.212 191.485 288.604 191.49 287.849C191.495 287.094 190.888 286.479 190.136 286.474C189.384 286.469 188.771 287.077 188.766 287.832Z" fill="#17282F"/>
<path d="M200.207 287.462C200.202 288.216 200.808 288.833 201.56 288.837C202.313 288.842 202.926 288.234 202.931 287.479C202.935 286.723 202.33 286.108 201.578 286.103C200.825 286.099 200.211 286.706 200.207 287.462Z" fill="#17282F"/>
<path d="M199.488 281.397C200.704 281.535 201.92 281.673 203.136 281.812C203.061 281.035 202.367 280.35 201.606 280.2C200.845 280.05 199.849 280.707 199.488 281.397Z" fill="#17282F"/>
<path d="M191.499 281.719C190.275 281.708 189.052 281.697 187.828 281.686C187.997 280.924 188.768 280.328 189.541 280.272C190.315 280.216 191.224 280.99 191.499 281.719Z" fill="#17282F"/>
<path d="M190.944 297.135C192.691 297.674 194.437 298.213 196.183 298.753C195.646 299.975 193.935 300.737 192.652 300.383C191.37 300.03 190.784 298.461 190.944 297.135Z" fill="#A64A56"/>
<path d="M190.944 297.135C192.691 297.674 194.437 298.213 196.183 298.753C195.646 299.975 193.935 300.737 192.652 300.383C191.37 300.03 190.784 298.461 190.944 297.135Z" fill="#5F1A23"/>
<path d="M194.371 300.279C193.802 300.475 193.192 300.531 192.655 300.383C191.648 300.106 191.078 299.079 190.953 298.01C191.645 297.905 192.373 298.023 192.977 298.38C193.672 298.791 194.169 299.497 194.371 300.279Z" fill="#A64A56"/>
<path d="M194.371 300.279C193.802 300.475 193.192 300.531 192.655 300.383C191.648 300.106 191.078 299.079 190.953 298.01C191.645 297.905 192.373 298.023 192.977 298.38C193.672 298.791 194.169 299.497 194.371 300.279Z" fill="#892F3A"/>
<path d="M193.932 319.506C189.163 319.423 188.466 327.175 184.104 328.478L172.992 314.903L176.439 309.76C177.127 308.734 178.021 307.864 179.066 307.207L179.105 309.07C179.128 310.176 179.724 311.19 180.676 311.748L193.932 319.506Z" fill="#F2575D"/>
<path d="M193.926 319.507C196.58 318.679 200.538 322.007 200.538 322.007C199.153 314.309 194.95 307.209 193.926 307.209V319.507Z" fill="#F2575D"/>
<path d="M190.023 225.664C190.633 225.31 190.936 224.812 190.934 224.256C190.933 223.7 190.628 223.546 190.018 223.9L189.193 224.377L189.199 226.141L190.023 225.664ZM190.098 222.506C191.527 221.679 192.426 222.012 192.43 223.389C192.434 224.759 191.54 226.131 190.111 226.959L189.203 227.486L189.207 229.062L187.728 229.919L187.711 223.89L190.098 222.506Z" fill="#222222"/>
<path d="M195.453 222.517C196.063 222.164 196.37 221.662 196.369 221.106C196.367 220.551 196.058 220.4 195.448 220.753L194.623 221.231L194.628 222.995L195.453 222.517ZM196.845 222.74L197.976 223.981L196.391 224.9L195.44 223.846L194.632 224.313L194.637 225.916L193.157 226.772L193.141 220.744L195.533 219.357C196.957 218.533 197.856 218.866 197.86 220.242C197.862 221.128 197.494 222.001 196.845 222.74Z" fill="#222222"/>
<path d="M201.314 220.751C202.109 220.29 202.724 219.255 202.721 218.207C202.718 217.167 202.1 216.845 201.304 217.306C200.514 217.765 199.899 218.8 199.902 219.84C199.905 220.887 200.523 221.209 201.314 220.751ZM201.299 215.891C202.976 214.921 204.211 215.537 204.217 217.34C204.222 219.15 202.992 221.196 201.318 222.166C199.648 223.134 198.41 222.516 198.406 220.707C198.4 218.904 199.629 216.859 201.299 215.891Z" fill="#222222"/>
<path d="M209.095 211.5L209.099 212.818L206.476 214.338L206.48 215.663L208.789 214.325L208.792 215.643L206.484 216.982L206.489 219.049L205.009 219.906L204.992 213.877L209.095 211.5Z" fill="#222222"/>
<path d="M211.265 210.241L211.281 216.271L209.802 217.128L209.785 211.1L211.265 210.241Z" fill="#222222"/>
<path d="M213.796 208.773L213.809 213.451L216.303 212.006L216.307 213.357L212.333 215.658L212.316 209.63L213.796 208.773Z" fill="#222222"/>
<path d="M220.977 204.614L220.981 205.932L218.347 207.459L218.35 208.473L220.669 207.128L220.673 208.401L218.353 209.746L218.356 210.851L221.086 209.27L221.09 210.587L216.892 213.02L216.875 206.99L220.977 204.614Z" fill="#222222"/>
<path d="M226.495 206.088C227.38 205.575 227.978 204.62 227.975 203.574C227.972 202.533 227.371 202.273 226.485 202.786L225.55 203.328L225.559 206.63L226.495 206.088ZM226.538 201.39C228.275 200.384 229.46 200.862 229.466 202.71C229.471 204.565 228.292 206.413 226.555 207.42L224.083 208.852L224.066 202.822L226.538 201.39Z" fill="#222222"/>
<path d="M231.909 201.889L233.254 201.11L232.576 199.574L231.909 201.889ZM233.31 197.472L235.642 202.159L234.107 203.049L233.689 202.121L231.481 203.399L231.076 204.807L229.562 205.683L231.854 198.316L233.31 197.472Z" fill="#222222"/>
<path d="M242.002 196.041L243.346 195.262L242.669 193.726L242.002 196.041ZM243.403 191.624L245.735 196.313L244.2 197.202L243.787 196.269L241.574 197.552L241.167 198.958L239.66 199.832L241.946 192.468L243.403 191.624Z" fill="#222222"/>
<path d="M239.968 193.611L239.972 194.961L238.376 195.887L238.389 200.565L236.909 201.422L236.896 196.744L235.293 197.673L235.289 196.321L239.968 193.611Z" fill="#222222"/>
<path d="M196.574 228.561V232.71L238.481 208.445V204.296L196.574 228.561Z" fill="#AD58B2"/>
<path d="M196.574 232.71V228.561L238.481 204.296V208.445L196.574 232.71Z" fill="#DADBD8"/>
<path d="M207.043 229.92V234.068L231.425 219.865V215.717L207.043 229.92Z" fill="#AD58B2"/>
<path d="M207.043 234.068V229.92L231.425 215.717V219.865L207.043 234.068Z" fill="#DADBD8"/>
<path d="M219.895 256.558V260.707L277.309 227.494V223.346L219.895 256.558Z" fill="#AD58B2"/>
<path d="M219.895 263.672V267.821L264.542 242.002V237.853L219.895 263.672Z" fill="#AD58B2"/>
<path d="M219.895 276.284V280.433L277.309 247.219V243.071L219.895 276.284Z" fill="#AD58B2"/>
<path d="M219.895 283.399V287.548L277.309 254.373V250.225L219.895 283.399Z" fill="#AD58B2"/>
<path d="M219.895 290.267V294.416L263.195 269.458V265.309L219.895 290.267Z" fill="#AD58B2"/>
<path d="M219.895 232.737V239.832L261.802 215.567V208.471L219.895 232.737Z" fill="#AD58B2"/>
<path d="M219.895 243.471V247.938L247.734 231.888V227.422L219.895 243.471Z" fill="#AD58B2"/>
<path d="M219.895 260.707V256.558L277.309 223.346V227.494L219.895 260.707Z" fill="#DADBD8"/>
<path d="M219.895 267.821V263.672L264.542 237.853V242.002L219.895 267.821Z" fill="#DADBD8"/>
<path d="M219.895 280.433V276.284L277.309 243.071V247.219L219.895 280.433Z" fill="#DADBD8"/>
<path d="M219.895 287.548V283.399L277.309 250.225V254.373L219.895 287.548Z" fill="#DADBD8"/>
<path d="M219.895 294.416V290.267L263.195 265.309V269.458L219.895 294.416Z" fill="#DADBD8"/>
<path d="M219.895 239.832V232.737L261.802 208.471V215.567L219.895 239.832Z" fill="#DADBD8"/>
<path d="M219.895 247.938V243.471L247.734 227.422V231.888L219.895 247.938Z" fill="#DADBD8"/>
<path d="M223.833 298.825L225.132 301.103L228.027 299.907L225.941 303.477L226.442 306.514L223.854 306.443L221.269 309.51L221.75 305.906L219.652 304.76L222.543 302.603L223.833 298.825Z" fill="#AD58B2"/>
<path d="M236.383 291.553L237.683 293.829L240.578 292.635L238.492 296.205L238.993 299.24L236.405 299.17L233.819 302.237L234.308 298.629L232.203 297.487L235.094 295.33L236.383 291.553Z" fill="#AD58B2"/>
<path d="M248.93 284.28L250.23 286.557L253.125 285.363L251.039 288.933L251.546 291.964L248.952 291.898L246.366 294.965L246.855 291.357L244.75 290.214L247.641 288.057L248.93 284.28Z" fill="#AD58B2"/>
<path d="M261.489 277.007L262.79 279.284L265.684 278.089L263.598 281.66L264.106 284.691L261.511 284.625L258.926 287.692L259.414 284.084L257.309 282.942L260.207 280.781L261.489 277.007Z" fill="#01257D"/>
<path d="M274.036 269.736L275.336 272.013L278.231 270.818L276.145 274.388L276.652 277.42L274.058 277.353L271.473 280.421L271.961 276.812L269.855 275.67L272.753 273.51L274.036 269.736Z" fill="#01257D"/>
<path d="M223.833 309.81L225.132 312.086L228.027 310.892L225.941 314.462L226.442 317.498L223.854 317.427L221.269 320.494L221.75 316.89L219.652 315.745L222.543 313.588L223.833 309.81Z" fill="#AD58B2"/>
<path d="M236.383 302.537L237.683 304.814L240.578 303.619L238.492 307.189L238.993 310.224L236.405 310.154L233.819 313.222L234.308 309.614L232.203 308.471L235.094 306.314L236.383 302.537Z" fill="#AD58B2"/>
<path d="M248.93 295.265L250.23 297.542L253.125 296.348L251.039 299.918L251.546 302.949L248.952 302.882L246.366 305.95L246.855 302.342L244.75 301.2L247.641 299.043L248.93 295.265Z" fill="#AD58B2"/>
<path d="M261.489 287.992L262.79 290.27L265.684 289.074L263.598 292.645L264.106 295.677L261.511 295.61L258.926 298.677L259.414 295.069L257.309 293.927L260.207 291.766L261.489 287.992Z" fill="#AD58B2"/>
<path d="M274.036 280.719L275.336 282.995L278.231 281.801L276.145 285.371L276.652 288.402L274.058 288.336L271.473 291.404L271.961 287.795L269.855 286.653L272.753 284.493L274.036 280.719Z" fill="#01257D"/>
<path d="M223.833 320.794L225.132 323.072L228.027 321.876L225.941 325.446L226.442 328.482L223.854 328.412L221.269 331.479L221.75 327.875L219.652 326.728L222.543 324.572L223.833 320.794Z" fill="#AD58B2"/>
<path d="M236.383 313.522L237.683 315.798L240.578 314.604L238.492 318.174L238.993 321.209L236.405 321.138L233.819 324.206L234.308 320.597L232.203 319.456L235.094 317.299L236.383 313.522Z" fill="#AD58B2"/>
<path d="M248.93 306.248L250.23 308.526L253.125 307.331L251.039 310.9L251.546 313.932L248.952 313.866L246.366 316.934L246.855 313.325L244.75 312.183L247.641 310.026L248.93 306.248Z" fill="#AD58B2"/>
<path d="M261.489 298.977L262.79 301.254L265.684 300.059L263.598 303.629L264.106 306.661L261.511 306.594L258.926 309.661L259.414 306.053L257.309 304.912L260.207 302.751L261.489 298.977Z" fill="#01257D"/>
<path d="M274.036 291.703L275.336 293.98L278.231 292.785L276.145 296.355L276.652 299.386L274.058 299.321L271.473 302.388L271.961 298.78L269.855 297.637L272.753 295.477L274.036 291.703Z" fill="#01257D"/>
<path d="M221.269 309.51L221.75 305.906L219.652 304.76L222.543 302.603L223.833 298.825L225.132 301.103L228.027 299.907L225.941 303.477L226.442 306.514L223.854 306.443L221.269 309.51Z" fill="#F5D5ED"/>
<path d="M233.819 302.237L234.308 298.629L232.203 297.487L235.094 295.33L236.383 291.553L237.683 293.829L240.578 292.635L238.492 296.205L238.993 299.24L236.405 299.17L233.819 302.237Z" fill="#F5D5ED"/>
<path d="M246.366 294.965L246.855 291.357L244.75 290.214L247.641 288.057L248.93 284.28L250.23 286.557L253.125 285.363L251.039 288.933L251.546 291.964L248.952 291.898L246.366 294.965Z" fill="#F5D5ED"/>
<path d="M221.269 320.494L221.75 316.89L219.652 315.745L222.543 313.588L223.833 309.81L225.132 312.086L228.027 310.892L225.941 314.462L226.442 317.498L223.854 317.427L221.269 320.494Z" fill="#F5D5ED"/>
<path d="M233.819 313.222L234.308 309.614L232.203 308.471L235.094 306.314L236.383 302.537L237.683 304.814L240.578 303.619L238.492 307.189L238.993 310.224L236.405 310.154L233.819 313.222Z" fill="#F5D5ED"/>
<path d="M246.366 305.95L246.855 302.342L244.75 301.2L247.641 299.043L248.93 295.265L250.23 297.542L253.125 296.348L251.039 299.918L251.546 302.949L248.952 302.882L246.366 305.95Z" fill="#F5D5ED"/>
<path d="M258.926 298.677L259.414 295.069L257.309 293.927L260.207 291.766L261.489 287.992L262.79 290.27L265.684 289.074L263.598 292.645L264.106 295.677L261.511 295.61L258.926 298.677Z" fill="#F5D5ED"/>
<path d="M221.269 331.479L221.75 327.875L219.652 326.728L222.543 324.572L223.833 320.794L225.132 323.072L228.027 321.876L225.941 325.446L226.442 328.482L223.854 328.412L221.269 331.479Z" fill="#F5D5ED"/>
<path d="M233.819 324.206L234.308 320.597L232.203 319.456L235.094 317.299L236.383 313.522L237.683 315.798L240.578 314.604L238.492 318.174L238.993 321.209L236.405 321.138L233.819 324.206Z" fill="#F5D5ED"/>
<path d="M246.366 316.934L246.855 313.325L244.75 312.183L247.641 310.026L248.93 306.248L250.23 308.526L253.125 307.331L251.039 310.9L251.546 313.932L248.952 313.866L246.366 316.934Z" fill="#F5D5ED"/>
<path d="M171.046 366.749L156.242 375.363V392.561L168.475 385.456L171.046 380.117V366.749Z" fill="#AD58B2"/>
<path d="M156.242 392.561V375.363L171.046 366.749V380.117L168.475 381.61V385.456L156.242 392.561Z" fill="#DADBD8"/>
<path d="M168.473 385.456L171.044 380.116L168.473 381.609V385.456Z" fill="#AD58B2"/>
<path d="M168.473 385.456V381.609L171.044 380.116L168.473 385.456Z" fill="#01257D"/>
<path d="M174.066 365.018V368.646L214.483 345.254V341.626L174.066 365.018Z" fill="#AD58B2"/>
<path d="M174.066 371.24V374.868L214.483 351.511V347.882L174.066 371.24Z" fill="#AD58B2"/>
<path d="M174.066 377.248V380.876L202.139 364.703V361.076L174.066 377.248Z" fill="#AD58B2"/>
<path d="M174.066 368.646V365.018L214.483 341.626V345.254L174.066 368.646Z" fill="#DADBD8"/>
<path d="M174.066 374.868V371.24L214.483 347.882V351.511L174.066 374.868Z" fill="#DADBD8"/>
<path d="M174.066 380.876V377.248L202.139 361.076V364.703L174.066 380.876Z" fill="#DADBD8"/>
<path d="M171.046 389.825L156.242 398.44V415.638L168.475 408.532L171.046 403.194V389.825Z" fill="#AD58B2"/>
<path d="M156.242 415.638V398.44L171.046 389.825V403.194L168.475 404.688V408.532L156.242 415.638Z" fill="#DADBD8"/>
<path d="M168.473 408.532L171.044 403.193L168.473 404.687V408.532Z" fill="#AD58B2"/>
<path d="M168.473 408.532V404.687L171.044 403.193L168.473 408.532Z" fill="#01257D"/>
<path d="M174.066 388.095V391.723L214.921 368.088V364.459L174.066 388.095Z" fill="#AD58B2"/>
<path d="M174.066 394.318V397.945L214.921 374.344V370.716L174.066 394.318Z" fill="#AD58B2"/>
<path d="M174.066 400.325V403.953L182.92 398.956V395.327L174.066 400.325Z" fill="#AD58B2"/>
<path d="M174.066 391.723V388.095L214.921 364.459V368.088L174.066 391.723Z" fill="#DADBD8"/>
<path d="M174.066 397.945V394.318L214.921 370.716V374.344L174.066 397.945Z" fill="#DADBD8"/>
<path d="M174.066 403.953V400.325L182.92 395.327V398.956L174.066 403.953Z" fill="#DADBD8"/>
<path d="M171.046 412.902L156.242 421.517V438.714L168.475 431.61L171.046 426.271V412.902Z" fill="#AD58B2"/>
<path d="M156.242 438.714V421.517L171.046 412.902V426.271L168.475 427.765V431.61L156.242 438.714Z" fill="#DADBD8"/>
<path d="M168.473 431.609L171.044 426.27L168.473 427.764V431.609Z" fill="#AD58B2"/>
<path d="M168.473 431.609V427.764L171.044 426.27L168.473 431.609Z" fill="#01257D"/>
<path d="M174.066 411.171V414.8L215.31 390.766V387.138L174.066 411.171Z" fill="#AD58B2"/>
<path d="M174.066 417.394V421.022L215.31 397.022V393.394L174.066 417.394Z" fill="#AD58B2"/>
<path d="M174.066 423.403V427.03L215.31 403.08V399.452L174.066 423.403Z" fill="#AD58B2"/>
<path d="M174.066 414.8V411.171L215.31 387.138V390.766L174.066 414.8Z" fill="#DADBD8"/>
<path d="M174.066 421.022V417.394L215.31 393.394V397.022L174.066 421.022Z" fill="#DADBD8"/>
<path d="M174.066 427.03V423.403L215.31 399.452V403.08L174.066 427.03Z" fill="#DADBD8"/>
<path d="M276.615 372.909L221.571 404.785C220.852 405.202 219.953 404.681 219.953 403.847V341.522C219.953 340.361 220.57 339.289 221.572 338.708L276.616 306.834C277.334 306.417 278.234 306.938 278.234 307.771V370.097C278.234 371.257 277.617 372.329 276.615 372.909Z" fill="#01257D"/>
<path d="M239.491 333.644L224.688 342.259V359.456L236.92 352.351L239.491 347.013V333.644Z" fill="#AD58B2"/>
<path d="M224.688 359.456V342.259L239.491 333.644V347.013L236.92 348.505V352.351L224.688 359.456Z" fill="#DADBD8"/>
<path d="M236.922 352.35L239.493 347.011L236.922 348.503V352.35Z" fill="#AD58B2"/>
<path d="M236.922 352.35V348.503L239.493 347.011L236.922 352.35Z" fill="#415993"/>
<path d="M242.984 334.007V336.42L275.013 317.873V315.46L242.984 334.007Z" fill="#AD58B2"/>
<path d="M242.984 340.558L275.013 322.032V319.62L242.984 338.144V340.558Z" fill="#AD58B2"/>
<path d="M242.984 344.831L275.013 326.284V323.871L242.984 342.419V344.831Z" fill="#AD58B2"/>
<path d="M260.474 336.421L242.984 346.556V348.97L260.474 338.833V336.421Z" fill="#AD58B2"/>
<path d="M224.688 365.581L275.012 336.547V334.135L224.688 363.168V365.581Z" fill="#AD58B2"/>
<path d="M262.023 345.806L224.688 367.306V369.719L262.023 348.219V345.806Z" fill="#AD58B2"/>
<path d="M224.688 385.118L275.012 356.084V353.672L224.688 382.706V385.118Z" fill="#AD58B2"/>
<path d="M252.652 370.739L224.688 386.843V389.257L252.652 373.153V370.739Z" fill="#AD58B2"/>
<path d="M224.688 393.529L275.012 364.496V362.083L224.688 391.117V393.529Z" fill="#AD58B2"/>
<path d="M224.688 397.667L249.85 383.161V380.749L224.688 395.253V397.667Z" fill="#AD58B2"/>
<path d="M253.328 381.156L261.216 376.61V374.197L253.328 378.745V381.156Z" fill="#AD58B2"/>
<path d="M224.688 373.992L275.012 344.959V342.546L224.688 371.58V373.992Z" fill="#AD58B2"/>
<path d="M242.247 365.594L224.688 375.717V378.129L242.247 368.007V365.594Z" fill="#AD58B2"/>
<path d="M242.984 336.42V334.007L275.013 315.46V317.873L242.984 336.42Z" fill="#DADBD8"/>
<path d="M242.984 340.558V338.144L275.013 319.62V322.032L242.984 340.558Z" fill="#DADBD8"/>
<path d="M242.984 344.831V342.419L275.013 323.871V326.284L242.984 344.831Z" fill="#DADBD8"/>
<path d="M242.984 348.97V346.556L260.474 336.421V338.833L242.984 348.97Z" fill="#DADBD8"/>
<path d="M224.688 365.581V363.168L275.012 334.135V336.547L224.688 365.581Z" fill="#DADBD8"/>
<path d="M224.688 369.719V367.306L262.023 345.806V348.219L224.688 369.719Z" fill="#DADBD8"/>
<path d="M224.688 385.118V382.706L275.012 353.672V356.084L224.688 385.118Z" fill="#DADBD8"/>
<path d="M224.688 389.257V386.843L252.652 370.739V373.153L224.688 389.257Z" fill="#DADBD8"/>
<path d="M224.688 393.529V391.117L275.012 362.083V364.496L224.688 393.529Z" fill="#DADBD8"/>
<path d="M224.688 397.667V395.253L249.85 380.749V383.161L224.688 397.667Z" fill="#DADBD8"/>
<path d="M253.328 381.156V378.745L261.216 374.197V376.61L253.328 381.156Z" fill="#DADBD8"/>
<path d="M224.688 373.992V371.58L275.012 342.546V344.959L224.688 373.992Z" fill="#DADBD8"/>
<path d="M224.688 378.129V375.717L242.247 365.594V368.007L224.688 378.129Z" fill="#DADBD8"/>
<path d="M294.154 523.274C296.291 525.525 299.53 526.479 302.628 526.4C305.725 526.321 308.724 525.314 311.59 524.132C314.457 522.949 318.055 519.639 321.152 519.701C324.015 519.758 327.395 519.388 330.218 519.079C330.492 512.802 328.928 506.76 328.928 506.76L314.461 506.376C310.556 511.744 302.96 516.211 297.214 517.886C295.369 518.424 294.004 519.927 293.645 521.703L293.654 521.796C293.858 522.725 294.154 523.274 294.154 523.274Z" fill="#273E47"/>
<path d="M321.151 519.701C318.054 519.639 314.455 522.949 311.589 524.131C308.723 525.314 305.724 526.32 302.626 526.4C299.529 526.479 296.29 525.525 294.153 523.274C294.153 523.274 293.856 522.725 293.653 521.796L293.643 521.703C293.518 522.325 293.509 522.979 293.653 523.638C293.856 524.567 294.153 525.116 294.153 525.116C296.29 527.367 299.529 528.322 302.626 528.242C305.724 528.163 308.723 527.156 311.589 525.973C314.455 524.792 318.054 521.481 321.151 521.543C324.338 521.608 327.09 521.348 330.074 521.026C330.146 520.377 330.188 519.727 330.216 519.079C327.394 519.388 324.014 519.758 321.151 519.701Z" fill="#17282F"/>
<path d="M365.729 531.359C365.716 532.951 365.605 534.534 365.263 536.084C364.665 538.799 363.272 541.447 360.958 542.975C358.964 544.291 356.501 544.656 354.119 544.801C352.01 544.93 349.839 544.902 347.862 544.154C346.36 543.585 344.983 542.531 344.199 541.151L344.213 541.233C344.684 543.301 346.452 544.889 348.429 545.636C350.406 546.384 352.577 546.412 354.685 546.284C357.069 546.14 359.531 545.774 361.526 544.457C363.84 542.93 365.232 540.281 365.83 537.568C366.172 536.017 366.283 534.432 366.296 532.842C366.313 530.645 367.223 528.57 368.82 527.067C369.209 526.701 369.581 526.322 369.921 525.929C370.413 525.362 370.651 524.618 370.594 523.868C370.571 523.574 370.54 523.287 370.503 523.004C369.935 523.672 368.591 525.265 368.254 525.584C366.655 527.086 365.746 529.162 365.729 531.359Z" fill="#17282F"/>
<path d="M353.853 514.899C354.453 518.105 353.871 521.454 352.645 524.476C351.419 527.498 349.575 530.228 347.593 532.813C346.641 534.056 345.647 535.284 344.949 536.685C344.263 538.062 343.882 539.648 344.199 541.151C344.983 542.53 346.359 543.585 347.862 544.153C349.839 544.901 352.01 544.929 354.118 544.801C356.501 544.655 358.964 544.29 360.958 542.974C363.272 541.447 364.665 538.798 365.263 536.084C365.605 534.533 365.716 532.95 365.728 531.359C365.745 529.161 366.655 527.086 368.253 525.583C368.59 525.265 369.935 523.672 370.503 523.004C369.993 519.09 368.18 516.319 368.18 516.319L353.853 514.899Z" fill="#273E47"/>
<path d="M312.571 379.088C312.571 379.088 308.73 427.316 309.064 440.731C309.397 454.145 310.807 507.164 310.807 507.164C318.668 511.555 330.024 508.281 330.024 508.281C330.943 465.963 335.119 456.859 332.28 441.37C334.283 429.872 337.046 403.075 337.046 403.075C340.964 435.302 343.804 451.91 343.804 451.91L353.157 516.427C360.84 520.259 370.526 516.427 370.526 516.427C370.526 479.652 371.362 464.095 367.353 439.821C367.14 402.452 363.401 375.682 363.401 375.682L312.571 379.088Z" fill="#33535F"/>
<path d="M333.895 430.371V430.368C334.228 427.81 334.559 425.141 334.875 422.517C334.559 425.142 334.228 427.812 333.895 430.371ZM337.045 403.117C337.045 403.117 337.045 403.117 337.045 403.116V403.117Z" fill="#BABCBA"/>
<path d="M333.889 430.368L334.448 404.969L332.944 397.826C332.944 397.826 324.537 397.826 321.855 391.544C323.705 392.963 328.459 395.449 335.023 395.449C335.346 395.449 335.675 395.442 336.006 395.43L337.043 403.075V403.076C337.043 403.077 337.043 403.077 337.043 403.077C337.043 403.079 337.043 403.081 337.043 403.084C337.042 403.084 337.042 403.084 337.042 403.084C337.042 403.085 337.042 403.085 337.042 403.085C337.042 403.086 337.042 403.087 337.042 403.088C337.042 403.088 337.042 403.088 337.042 403.089C337.042 403.089 337.042 403.089 337.042 403.09C337.042 403.093 337.041 403.097 337.041 403.101V403.102C337.041 403.103 337.04 403.103 337.04 403.104C337.04 403.104 337.04 403.104 337.04 403.105C337.04 403.106 337.04 403.107 337.04 403.108C337.04 403.109 337.04 403.11 337.04 403.111C337.04 403.112 337.04 403.112 337.039 403.113C337.039 403.114 337.039 403.114 337.039 403.115C337.039 403.116 337.039 403.117 337.039 403.117C337.039 403.118 337.039 403.118 337.039 403.118C336.968 403.807 336.028 412.858 334.869 422.517C334.554 425.141 334.223 427.81 333.889 430.368Z" fill="#263F48"/>
<path d="M325.394 304.291C312.266 304.291 310.112 309.415 306.799 317.909C303.487 326.402 300.906 341.563 300.906 341.563L313.605 338.822L318.586 310.13L325.394 304.291Z" fill="#DADBD8"/>
<path d="M313.605 336.768C310.303 336.542 306.944 337.154 303.931 338.532C302.76 339.067 301.609 339.742 300.833 340.772C300.057 341.803 299.728 343.252 300.294 344.411C299.085 346.634 299.197 349.945 299.445 352.678C299.492 353.201 299.559 353.733 299.78 354.209C300.001 354.686 300.401 355.104 300.911 355.222L313.605 343.765V336.768Z" fill="#DADBD8"/>
<path d="M300.292 344.41C300.104 344.023 300.022 343.602 300.016 343.176C301.386 341.927 304.339 339.558 308.413 339.558C308.687 339.558 308.968 339.569 309.252 339.591C305.765 339.956 301.332 342.828 300.292 344.41Z" fill="#DADBD8"/>
<path d="M304.328 343.908C306.684 341.943 309.704 340.641 312.764 340.439C312.77 340.781 312.775 341.125 312.781 341.474C309.823 341.589 306.892 342.421 304.328 343.908Z" fill="#DADBD8"/>
<path d="M347.32 295.499L347.321 295.495L347.309 295.502L347.32 295.499Z" fill="#F6879F"/>
<path d="M361.781 305.16L355.614 304.501L325.389 304.29C314.801 304.29 313.443 317.369 312.831 328.942C312.221 340.514 314.177 363.804 311.551 379.354L324.158 387.526L327.704 383.703L333.351 388.975C352.523 388.975 363.817 378.3 365.261 376.456L361.781 305.16Z" fill="#AD58B2"/>
<path d="M333.351 388.975L327.704 383.703L324.158 387.526L311.551 379.354C312.686 372.627 312.965 364.451 312.965 356.402C312.965 351.236 312.85 346.12 312.773 341.475C312.767 341.126 312.762 340.782 312.756 340.44C312.726 338.489 312.705 336.628 312.705 334.892C312.705 332.687 312.739 330.683 312.831 328.942C313.443 317.369 314.801 304.29 325.389 304.29L355.614 304.501L361.781 305.16C353.994 314.701 357.655 326.656 359.644 341.104C359.309 341.342 359.089 341.733 359.089 342.177V344.895C359.089 345.213 359.225 345.517 359.461 345.727C359.685 345.926 359.82 346.207 359.833 346.506L359.91 348.138C359.91 348.138 361.584 348.669 363.961 349.814L365.261 376.456C363.817 378.3 352.523 388.975 333.351 388.975ZM327.063 381.199L324.887 344.813C324.798 343.322 325.237 341.848 326.127 340.651L329.378 336.278L325.473 339.654C323.908 341.006 323.103 343.041 323.317 345.102L327.063 381.199ZM330.229 335.049C330.264 335.24 330.298 335.425 330.33 335.602C337.487 325.718 344.184 315.811 346.286 311.934L336.305 307.071L330.33 308.325C327.595 317.068 329.173 329.15 330.229 335.049Z" fill="#DADBD8"/>
<path d="M330.331 308.325C327.507 317.351 329.28 329.936 330.331 335.603C337.488 325.719 344.185 315.811 346.287 311.935L336.306 307.071L330.331 308.325Z" fill="#DADBD8"/>
<path d="M327.069 381.199L323.323 345.102C323.109 343.042 323.914 341.006 325.478 339.654L329.384 336.278L326.132 340.651C325.243 341.848 324.804 343.322 324.893 344.813L327.069 381.199Z" fill="#F2575D"/>
<path d="M361.78 305.161L365.88 305.818C370.832 306.612 374.733 310.424 375.755 315.352C379.542 333.603 378.425 350.264 378.425 350.264L359.712 341.616C357.742 326.938 353.901 314.814 361.78 305.161Z" fill="#DADBD8"/>
<path d="M359.094 342.178C359.094 341.438 359.702 340.849 360.438 340.858C368.911 340.969 377.138 345.013 379.384 349.769C380.303 351.746 379.384 354.365 379.384 354.365C380.894 356.342 380.106 357.331 379.318 358.764C378.53 360.197 379.712 363.409 377.151 363.261L377.752 362.044C372.687 352.186 359.915 348.138 359.915 348.138L359.838 346.506C359.825 346.207 359.69 345.927 359.466 345.728C359.23 345.517 359.094 345.214 359.094 344.895V342.178Z" fill="#DADBD8"/>
<path d="M379.377 354.365C377.128 351.506 372.686 347.777 368.672 346.235C375.271 347.821 378.321 351.056 379.72 352.821C379.605 353.711 379.38 354.357 379.377 354.365Z" fill="#DADBD8"/>
<path d="M375.477 354.584C371.293 350.352 365.72 347.528 359.847 346.637L359.84 346.506C359.827 346.207 359.692 345.926 359.468 345.728C359.316 345.591 359.212 345.415 359.152 345.223C362.965 345.973 371.564 348.889 375.477 354.584Z" fill="#DADBD8"/>
<path d="M359.912 348.138L359.842 346.638C345.487 341.65 320.184 342.617 312.793 342.562C307.338 342.507 299.719 351.299 300.284 354.759C300.847 358.22 300.904 361.191 307.565 361.762C312.275 362.063 321.345 360.249 321.345 360.249C346.341 367.962 370.457 366.59 374.2 365.905C375.977 365.647 377.148 363.261 377.148 363.261L377.749 362.045C372.684 352.186 359.912 348.138 359.912 348.138Z" fill="#A26257"/>
<path d="M369.408 355.277C368.973 353.845 368.307 352.699 367.637 351.816C363.509 349.278 359.918 348.139 359.918 348.139L359.848 346.639C359.542 346.533 359.224 346.433 358.909 346.331L359.097 348.186C355.022 348.464 331.083 358.295 321.352 360.25C323.256 360.836 325.154 361.366 327.039 361.853C337.915 358.062 352.917 350.602 359.841 349.535C364.667 350.778 367.145 352.064 369.408 355.277Z" fill="#892F3A"/>
<path d="M357.436 278.172C358.934 273.135 358.609 267.352 355.611 263.044C353.694 260.289 350.805 258.294 347.656 257.154C344.507 256.014 341.104 255.693 337.762 255.87C335.128 256.009 332.459 256.469 330.132 257.713C327.287 259.233 325.086 261.921 324.151 265.015C323.216 268.11 323.559 271.572 325.082 274.421C326.284 276.669 328.148 278.484 330.079 280.143C333.921 283.443 338.158 286.279 342.668 288.575C343.796 289.149 344.94 289.69 346.1 290.196C346.889 290.539 348.384 291.511 349.263 291.335C350.156 291.156 351.079 289.498 351.612 288.817C352.38 287.837 353.114 286.828 353.797 285.785C355.341 283.426 356.631 280.883 357.436 278.172Z" fill="#17282F"/>
<path d="M334.508 316.616L332.043 316.028C332.043 316.028 330.219 320.673 329.035 325.692C329.34 329.688 329.897 333.247 330.335 335.603C331.739 333.663 333.123 331.725 334.462 329.83C334.185 326.59 333.903 321.229 334.508 316.616Z" fill="#F2575D"/>
<path d="M334.44 317.14C334.46 316.964 334.482 316.789 334.505 316.615C334.482 316.787 334.469 316.965 334.448 317.139C334.445 317.139 334.442 317.14 334.44 317.14ZM331.898 316.393V316.392C331.98 316.177 332.032 316.043 332.038 316.028C332.032 316.043 331.983 316.17 331.898 316.393Z" fill="#263F48"/>
<path d="M333.853 317.188C333.666 317.188 333.48 317.173 333.297 317.133C332.774 317.019 332.302 316.746 331.898 316.393C331.983 316.17 332.032 316.044 332.038 316.028L332.039 316.027L334.505 316.615C334.482 316.789 334.46 316.964 334.44 317.14C334.245 317.171 334.049 317.188 333.853 317.188Z" fill="#313131"/>
<path d="M335.828 310.136L337.77 308.882L342.293 311.357C340.309 313.181 336.958 313.479 336.958 313.479L335.828 310.136Z" fill="#AD58B2"/>
<path d="M332.844 309.654L332.254 308.324L329.973 309.757C330.418 311.245 331.455 311.935 331.455 311.935L332.844 309.654Z" fill="#AD58B2"/>
<path d="M336.958 313.479L335.828 310.136L337.77 308.882L342.293 311.357C340.309 313.181 336.958 313.479 336.958 313.479Z" fill="#F2575D"/>
<path d="M331.455 311.935C331.455 311.935 330.418 311.245 329.973 309.757L332.254 308.324L332.844 309.654L331.455 311.935Z" fill="#F2575D"/>
<path d="M336.964 313.478C336.771 312.328 336.388 311.162 335.834 310.136C334.837 309.976 333.839 309.815 332.842 309.655C332.3 310.35 331.821 311.133 331.453 311.935C331.305 314.074 332.048 316.028 332.048 316.028C333.159 316.659 334.513 316.617 334.513 316.617C336.293 315.507 336.964 313.478 336.964 313.478Z" fill="#F2575D"/>
<path d="M349.619 286.906V300.646C346.893 304.412 335.443 309.195 334.78 309.081C333.947 308.939 334.766 301.535 334.766 300.894L334.779 295.328C337.003 294.989 339.187 294.594 341.15 294.181C345.059 293.36 348.233 290.594 349.619 286.906Z" fill="#A26257"/>
<path d="M339.765 297.44C338.136 297.893 336.464 298.139 334.781 298.326V295.328C337.005 294.989 339.189 294.594 341.152 294.181C344.828 293.41 347.832 290.908 349.333 287.546C348.944 289.85 347.946 292.054 346.347 293.743C344.593 295.594 342.217 296.758 339.765 297.44Z" fill="#892F3A"/>
<path d="M326.226 265.28C328.27 267.386 331.626 268.766 334.556 268.799C337.485 268.832 340.322 267.862 343.147 267.081C343.391 268.446 344.083 269.728 345.09 270.68C346.096 271.63 347.714 272.266 349.087 272.428C348.683 275.079 348.693 277.793 349.118 280.44C349.208 281.002 349.586 281.512 350.13 281.671C351.081 281.95 351.712 280.971 352.175 280.18C352.702 279.279 353.354 278.419 354.239 277.868C355.125 277.317 356.277 277.119 357.221 277.561C357.991 277.923 358.538 278.672 358.792 279.487C359.048 280.301 359.037 281.178 358.916 282.023C358.714 283.432 358.193 284.818 357.275 285.903C356.358 286.988 355.017 287.746 353.6 287.804C352.183 287.862 350.771 287.29 350.067 286.054L350.005 286.312C349.902 286.737 349.769 287.149 349.618 287.551C348.357 290.912 345.465 293.433 341.902 294.18C340.112 294.556 338.123 294.916 336.096 295.225C335.101 295.377 334.098 295.52 333.1 295.638C329.291 296.091 325.785 293.499 325.116 289.709C323.75 281.969 323.297 272.949 326.226 265.28Z" fill="#A26257"/>
<path d="M322.59 274.263C323.527 273.984 324.481 273.843 325.441 273.843C327.432 273.843 329.406 274.46 331.174 275.633C331.268 275.696 331.24 276.001 331.24 276.001L331.176 276.658C331.08 277.631 330.772 278.93 330.356 280.13C330.144 280.739 329.646 281.834 328.676 282.329C328.08 282.633 327.364 282.675 326.678 282.675L326.311 282.672C325.281 282.658 324.219 282.591 323.546 281.961C323.022 281.472 322.711 280.633 322.595 279.397C322.565 279.09 322.546 278.775 322.527 278.458C322.472 277.581 322.517 275.654 322.59 274.263ZM334.75 275.633C336.638 274.46 338.748 273.843 340.876 273.843C341.903 273.843 342.923 273.984 343.923 274.263C344.001 275.654 344.049 277.581 343.991 278.458C343.971 278.775 343.949 279.091 343.918 279.397C343.794 280.633 343.461 281.472 342.902 281.961C342.181 282.591 341.046 282.658 339.946 282.672L339.554 282.675C338.821 282.675 338.056 282.633 337.418 282.329C336.382 281.834 335.848 280.739 335.623 280.13C335.177 278.93 334.849 277.631 334.746 276.658L334.678 276.001C334.678 276.001 334.647 275.696 334.75 275.633ZM320.82 273.831V275.666L321.271 275.924C321.596 277.058 321.576 278.351 321.688 279.533C321.8 280.714 322.108 281.96 322.93 282.73C323.826 283.567 325.101 283.643 326.276 283.66C327.221 283.674 328.203 283.666 329.06 283.228C330.072 282.711 330.783 281.645 331.182 280.497C331.581 279.35 331.515 278.685 332.013 277.304C332.252 276.641 332.902 276.663 332.902 276.663C332.902 276.663 333.596 276.641 333.851 277.304C334.384 278.685 334.313 279.35 334.74 280.497C335.166 281.645 335.925 282.711 337.008 283.228C337.925 283.666 338.974 283.674 339.984 283.66C341.24 283.643 342.603 283.567 343.56 282.73C344.439 281.96 344.767 280.715 344.887 279.533C345.007 278.351 344.986 277.058 345.333 275.924L345.814 275.666V273.831C341.792 272.178 337.446 272.65 333.801 275.059H332.902H332.061C328.652 272.65 324.584 272.178 320.82 273.831Z" fill="#273E47"/>
<path d="M345.816 273.83L355.596 277.359C354.652 277.586 354.087 277.904 353.682 278.259C353.577 278.352 345.816 275.666 345.816 275.666V273.83Z" fill="#273E47"/>
<path d="M332.951 276.814L328.016 282.81L332.543 284.415L332.951 276.814Z" fill="#A64A56"/>
<path d="M332.951 276.814L328.016 282.81L332.543 284.415L332.951 276.814Z" fill="#892F3A"/>
<path d="M339.912 277.564C339.917 278.315 339.314 278.928 338.566 278.933C337.818 278.937 337.207 278.332 337.203 277.581C337.198 276.829 337.801 276.216 338.549 276.212C339.298 276.207 339.908 276.812 339.912 277.564Z" fill="#17282F"/>
<path d="M328.535 277.195C328.538 277.946 327.936 278.559 327.188 278.563C326.439 278.568 325.829 277.963 325.824 277.212C325.819 276.461 326.423 275.848 327.171 275.843C327.919 275.838 328.531 276.444 328.535 277.195Z" fill="#17282F"/>
<path d="M329.255 271.16C328.044 271.298 326.835 271.435 325.625 271.572C325.7 270.801 326.39 270.119 327.147 269.969C327.905 269.82 328.896 270.474 329.255 271.16Z" fill="#17282F"/>
<path d="M337.203 271.48C338.42 271.47 339.638 271.459 340.855 271.448C340.686 270.691 339.92 270.097 339.149 270.042C338.379 269.986 337.476 270.756 337.203 271.48Z" fill="#17282F"/>
<path d="M337.749 286.82C336.01 287.356 334.273 287.893 332.535 288.429C333.07 289.645 334.772 290.403 336.049 290.052C337.325 289.699 337.907 288.139 337.749 286.82Z" fill="#A64A56"/>
<path d="M337.749 286.82C336.01 287.356 334.273 287.893 332.535 288.429C333.07 289.645 334.772 290.403 336.049 290.052C337.325 289.699 337.907 288.139 337.749 286.82Z" fill="#5F1A23"/>
<path d="M334.344 289.948C334.911 290.142 335.517 290.199 336.052 290.052C337.053 289.775 337.622 288.754 337.746 287.689C337.056 287.585 336.333 287.703 335.731 288.058C335.039 288.467 334.545 289.169 334.344 289.948Z" fill="#A64A56"/>
<path d="M334.344 289.948C334.911 290.142 335.517 290.199 336.052 290.052C337.053 289.775 337.622 288.754 337.746 287.689C337.056 287.585 336.333 287.703 335.731 288.058C335.039 288.467 334.545 289.169 334.344 289.948Z" fill="#892F3A"/>
<path d="M348.225 301.794L336.42 308.701C338.201 308.994 339.731 309.779 341.182 310.637C341.558 310.86 341.928 311.086 342.294 311.311C343.697 312.169 345.06 313.004 346.615 313.518L354.985 304.452L351.774 299.663C351.299 298.954 350.719 298.324 350.055 297.796L350.036 298.707C350.036 298.707 350.036 298.707 350.036 298.707C350.01 299.981 349.324 301.151 348.225 301.794Z" fill="#DADBD8" stroke="#DADBD8"/>
<path d="M334.781 309.08C332.141 308.257 328.203 311.568 328.203 311.568C329.581 303.908 333.748 300.893 334.767 300.893L334.781 309.08Z" fill="#DADBD8"/>
<path d="M565 47C565 45.3431 566.343 44 568 44H639C640.657 44 642 45.3431 642 47V61.5H568C566.343 61.5 565 60.1569 565 58.5V47Z" fill="#00FFFF"/>
<path d="M586 61.5H660C661.657 61.5 663 62.8431 663 64.5V76C663 77.6569 661.657 79 660 79H589C587.343 79 586 77.6569 586 76V61.5Z" fill="#00FFFF"/>
<path d="M22.3514 321C22.3514 319.343 23.6946 318 25.3514 318H95.0005C96.6574 318 98.0005 319.343 98.0005 321V326.667C98.0005 328.324 96.6574 329.667 95.0005 329.667H22.3514V321Z" fill="#00FFFF"/>
<path d="M22.3516 341.333H95.0007C96.6575 341.333 98.0007 342.676 98.0007 344.333V350C98.0007 351.657 96.6575 353 95.0007 353H25.3516C23.6947 353 22.3516 351.657 22.3516 350V341.333Z" fill="#00FFFF"/>
<path d="M0 332.667C0 331.01 1.34315 329.667 3 329.667H75.6491V341.334H3C1.34314 341.334 0 339.991 0 338.334V332.667Z" fill="#00FFFF"/>
</svg>
