<svg width="22" height="22" viewBox="0 0 22 22" fill="none" xmlns="http://www.w3.org/2000/svg">
<path d="M21.5198 3.44565C21.3932 2.77996 21.1468 2.17311 20.8049 1.68538C20.463 1.19766 20.0377 0.846053 19.5711 0.665493C17.8626 1.75386e-07 10.9862 0 10.9862 0C10.9862 0 4.10953 0.0196167 2.40075 0.685109C1.93414 0.865669 1.50877 1.21728 1.16691 1.705C0.825049 2.19272 0.578592 2.79958 0.452031 3.46527C0 5.90312 0 11 0 11C0 11 0 16.0969 0.466125 18.5543C0.592686 19.22 0.839142 19.8269 1.18101 20.3146C1.52287 20.8023 1.94824 21.1539 2.41484 21.3345C4.12328 22 11 22 11 22C11 22 17.8767 22 19.5855 21.335C20.0521 21.1544 20.4775 20.8028 20.8193 20.3151C21.1612 19.8274 21.4077 19.2205 21.5342 18.5548C22 16.117 22 11 22 11C22 11 21.9862 5.90312 21.5198 3.44565Z" fill="white"/>
<path d="M8.79722 15.7129L14.5017 10.999L8.79688 6.28516L8.79722 15.7129Z" fill="#0D2C49"/>
</svg>
